<svg width="24" height="24" viewBox="0 0 24 24" fill="none" xmlns="http://www.w3.org/2000/svg">
<rect x="22" y="22" width="20" height="20" transform="rotate(-180 22 22)" stroke="#200E32" stroke-width="1.5"/>
<path opacity="0.4" fill-rule="evenodd" clip-rule="evenodd" d="M11.2493 15.6727C11.2493 16.0869 11.5851 16.4227 11.9993 16.4227C12.4136 16.4227 12.7493 16.0869 12.7493 15.6727L12.7493 12.7595L15.666 12.7595C16.0802 12.7595 16.416 12.4237 16.416 12.0095C16.416 11.5953 16.0802 11.2595 15.666 11.2595L12.7494 11.2595L12.7494 8.34637C12.7494 7.93216 12.4136 7.59637 11.9994 7.59637C11.5851 7.59637 11.2494 7.93216 11.2494 8.34637L11.2494 11.2595L8.33268 11.2595C7.91847 11.2595 7.58268 11.5953 7.58268 12.0095C7.58268 12.4237 7.91847 12.7595 8.33268 12.7595L11.2493 12.7595L11.2493 15.6727Z" fill="#200E32"/>
</svg>
