<svg width="10" height="10" viewBox="0 0 10 10" fill="none" xmlns="http://www.w3.org/2000/svg">
<path d="M2.69922 8.75326L3.35193 9.40634L8.48719 4.26548L7.83448 3.6123L2.69922 8.75326Z" fill="black"/>
<path d="M6.08984 1.16856L8.83661 3.91724L9.38057 3.37267L6.6338 0.624023L6.08984 1.16856Z" fill="black"/>
<path d="M9.38187 0.637376C8.69088 -0.0535853 7.67434 -0.183235 7 0.29428L9.71423 3.01043C10.1935 2.33673 10.0679 1.32338 9.38187 0.637376Z" fill="black"/>
<path d="M7.48171 3.26386L6.73302 2.51465L1.59766 7.65564L2.34644 8.40486L7.48171 3.26386Z" fill="black"/>
<path d="M0.00159915 9.78116C-0.00590961 9.83785 0.0132931 9.89481 0.0535451 9.93543C0.0884424 9.9706 0.135711 9.99002 0.18461 9.99002C0.19218 9.99002 0.199781 9.98956 0.207382 9.98861L1.34262 9.84763L0.150574 8.65527L0.00159915 9.78116Z" fill="black"/>
<path d="M6.39018 2.16685L5.74086 1.51709L0.605469 6.65811L1.25479 7.30784L6.39018 2.16685Z" fill="black"/>
<path d="M1.07761 7.83058C1.07505 7.82803 1.07287 7.82529 1.07044 7.82264L0.354148 7.10596L0.230469 8.04052L1.9605 9.77098L2.90101 9.65419L1.08536 7.83754C1.08278 7.8352 1.08007 7.83308 1.07761 7.83058Z" fill="black"/>
</svg>
