<svg width="13" height="11" viewBox="0 0 13 11" fill="none" xmlns="http://www.w3.org/2000/svg">
<path d="M12.542 4.75714C11.9277 3.59642 10.0955 0.899994 6.36339 0.899994C2.63125 0.899994 0.799107 3.59642 0.184821 4.75714C-0.0616071 5.22499 -0.0616071 5.77857 0.184821 6.24642C0.799107 7.40357 2.63482 10.1 6.36339 10.1C10.092 10.1 11.9241 7.40714 12.542 6.24642C12.7884 5.77857 12.7884 5.22142 12.542 4.75714ZM11.5955 5.74285C11.0705 6.72857 9.50982 9.02499 6.36339 9.02499C3.21696 9.02499 1.65625 6.72857 1.13125 5.74285C1.04911 5.59285 1.04911 5.41071 1.13125 5.26071C1.65625 4.27142 3.21339 1.97499 6.36339 1.97499C9.51339 1.97499 11.0705 4.27499 11.5955 5.26071C11.6741 5.41071 11.6741 5.58928 11.5955 5.74285ZM6.36339 2.77857C4.86339 2.77857 3.64196 3.99999 3.64196 5.49999C3.64196 6.99999 4.86339 8.22142 6.36339 8.22142C7.86339 8.22142 9.08482 6.99999 9.08482 5.49999C9.08482 3.99999 7.86339 2.77857 6.36339 2.77857ZM6.36339 7.14999C5.45268 7.14999 4.71339 6.41071 4.71339 5.49999C4.71339 4.58928 5.45268 3.84999 6.36339 3.84999C7.27411 3.84999 8.01339 4.58928 8.01339 5.49999C8.01339 6.41071 7.27411 7.14999 6.36339 7.14999Z" fill="black"/>
</svg>
