<svg width="30" height="31" viewBox="0 0 30 31" fill="none" xmlns="http://www.w3.org/2000/svg">
<path fill-rule="evenodd" clip-rule="evenodd" d="M11.6326 27.854C10.5762 28.7585 9.0116 29.052 7.53339 28.4856C6.1565 27.9587 5.19316 26.8139 4.88255 25.5284C4.80615 25.2143 4.79121 25.2555 5.04697 25.0684C6.09333 24.3029 7.54669 24.085 8.92359 24.6119C10.4018 25.1783 11.4033 26.4553 11.6326 27.854Z" fill="#B3E59F" fill-opacity="0.5"/>
<path fill-rule="evenodd" clip-rule="evenodd" d="M18.3676 27.854C19.4239 28.7585 20.9885 29.052 22.4667 28.4856C23.8436 27.9587 24.8069 26.8139 25.1176 25.5284C25.194 25.2143 25.2089 25.2555 24.9531 25.0684C23.9068 24.3029 22.4534 24.085 21.0765 24.6119C19.5983 25.1783 18.5967 26.4553 18.3676 27.854Z" fill="#B3E59F" fill-opacity="0.5"/>
<path fill-rule="evenodd" clip-rule="evenodd" d="M9.68753 22.5042C10.5778 22.5952 11.5261 22.1627 12.1241 21.2976C12.6805 20.4927 12.7967 19.511 12.5094 18.6992C12.4397 18.5018 12.4613 18.5172 12.257 18.5138C11.4215 18.4949 10.5595 18.9257 10.0031 19.7306C9.40516 20.5957 9.31716 21.6632 9.68753 22.5042Z" fill="#B3E59F" fill-opacity="0.5"/>
<path fill-rule="evenodd" clip-rule="evenodd" d="M20.3124 22.5042C19.4222 22.5952 18.4738 22.1627 17.8758 21.2976C17.3194 20.4927 17.2032 19.511 17.4905 18.6992C17.5603 18.5018 17.5386 18.5172 17.7429 18.5138C18.5784 18.4949 19.4404 18.9257 19.9968 19.7306C20.5948 20.5957 20.6828 21.6632 20.3124 22.5042Z" fill="#B3E59F" fill-opacity="0.5"/>
<path d="M7.1995 20.1374C7.03339 19.9556 7.04007 19.6689 7.21445 19.4973C7.39052 19.3256 7.6679 19.3325 7.8356 19.5127C9.27062 21.0677 10.3868 22.4957 11.1508 24.2669C11.9149 26.0399 12.3152 27.6789 12.3152 30.5469C12.3152 30.7975 12.1175 31 11.875 31C11.6325 31 11.4365 30.7975 11.4365 30.5469C11.4365 27.8111 11.0628 26.2887 10.3503 24.636C9.63771 22.9814 8.57306 21.6237 7.1995 20.1374Z" fill="#66B394" fill-opacity="0.5"/>
<path fill-rule="evenodd" clip-rule="evenodd" d="M2.47414 15.2116C3.09699 14.5234 4.45731 15.1481 5.06188 15.5686C5.58172 15.9307 5.57012 15.8038 5.61664 15.2202C5.67477 14.4805 6.04514 13.0474 6.93207 12.965C7.78912 12.9118 8.57141 14.3655 8.67934 16.2105C8.84545 19.027 6.91209 21.2839 4.18655 21.4556C2.39938 21.5688 0.909515 20.9424 0.85637 20.0567C0.826487 19.1145 2.21668 18.5635 2.93252 18.4194C3.54207 18.2958 3.44246 18.2031 3.08369 17.7672C2.62033 17.2025 1.9028 15.9153 2.47414 15.2116Z" fill="#62D9FA" fill-opacity="0.5"/>
<path fill-rule="evenodd" clip-rule="evenodd" d="M6.26272 13.358C6.45872 13.1211 6.6846 12.9821 6.9321 12.965C7.78915 12.9118 8.57143 14.3655 8.67936 16.2105C8.84548 19.027 6.91212 21.2839 4.18657 21.4556C3.78462 21.4813 3.39925 21.4693 3.04218 21.4247C5.59669 21.1037 7.37384 18.9155 7.2144 16.2105C7.14139 14.9679 6.76434 13.9038 6.26272 13.358Z" fill="#54D0F2" fill-opacity="0.5"/>
<path d="M22.1644 19.5127C22.3322 19.3325 22.6095 19.3256 22.7839 19.4973C22.96 19.6689 22.9666 19.9555 22.8006 20.1374C21.427 21.6237 20.3623 22.9814 19.6498 24.6359C18.9373 26.2886 18.5635 27.811 18.5635 30.5468C18.5635 30.7974 18.3676 30.9999 18.1251 30.9999C17.8826 30.9999 17.6849 30.7974 17.6849 30.5468C17.6849 27.6788 18.0852 26.0398 18.8492 24.2668C19.6132 22.4957 20.7294 21.0677 22.1644 19.5127Z" fill="#66B394" fill-opacity="0.5"/>
<path fill-rule="evenodd" clip-rule="evenodd" d="M27.5259 15.2116C26.9147 14.5354 25.5943 15.1241 24.9947 15.536C24.42 15.929 24.43 15.8037 24.3752 15.155C24.3121 14.4255 23.935 13.0456 23.068 12.965C22.2109 12.9118 21.4287 14.3655 21.3207 16.2105C21.1546 19.027 23.088 21.2839 25.8135 21.4556C27.6007 21.5688 29.0905 20.9424 29.1437 20.0567C29.1719 19.1711 27.9362 18.6254 27.2536 18.4726C27.0842 18.4331 26.5776 18.3834 26.6656 18.1191C26.7155 17.9715 27.0409 17.6093 27.1556 17.4394C27.5259 16.885 28.0292 15.8312 27.5259 15.2116Z" fill="#62D9FA" fill-opacity="0.5"/>
<path d="M14.574 14.4496C14.574 14.199 14.77 13.9948 15.0125 13.9948C15.2567 13.9948 15.4527 14.199 15.4527 14.4496L15.4394 30.5469C15.4394 30.7974 15.2434 30.9999 14.9992 30.9999C14.7567 30.9999 14.5607 30.7974 14.5607 30.5469L14.574 14.4496Z" fill="#66B394" fill-opacity="0.5"/>
<path fill-rule="evenodd" clip-rule="evenodd" d="M15.0124 0C15.8927 0.0274883 16.401 1.52584 16.5903 2.22776C16.8012 3.01384 17.0637 2.79073 17.6284 2.46462C18.2047 2.13337 19.4803 1.59444 20.06 2.16086C20.6496 2.80617 20.0268 4.19638 19.683 4.81941C19.306 5.5042 19.4422 5.59689 20.1397 5.79597C20.7925 5.98137 22.1262 6.5186 22.1511 7.37667C22.1262 8.2503 20.7343 8.79607 20.0717 8.98316C19.3425 9.18744 19.3691 9.36418 19.7228 10.0061C20.0567 10.612 20.6281 11.9713 20.06 12.5926C19.4371 13.2002 18.0918 12.5566 17.4889 12.2047C16.8378 11.8237 16.7315 11.9816 16.5438 12.6785C16.3645 13.3513 15.838 14.7277 15.0124 14.7518C14.1521 14.726 13.6488 13.2895 13.4595 12.5978C13.222 11.7276 12.9562 11.9765 12.3284 12.3266C11.7604 12.6424 10.5312 13.1436 9.96652 12.5927C9.39851 11.9696 9.96986 10.6137 10.3037 10.0062C10.7172 9.25271 10.5744 9.15487 9.81037 8.93515C9.17257 8.74981 7.89863 8.20743 7.87537 7.37673C7.90027 6.49456 9.29046 5.95902 9.95656 5.77024C10.8169 5.52654 10.5628 5.25704 10.2223 4.60144C9.91666 4.0162 9.43337 2.74441 9.96652 2.16086C10.581 1.56017 11.9414 2.19174 12.536 2.54533C13.207 2.94349 13.2884 2.78558 13.4794 2.06992C13.6588 1.39881 14.1919 0.0240371 15.0124 0V0Z" fill="#FD91BA" fill-opacity="0.5"/>
<path fill-rule="evenodd" clip-rule="evenodd" d="M15.0125 10.1434C16.489 10.1434 17.6915 8.90081 17.6915 7.37672C17.6915 5.85264 16.489 4.60834 15.0125 4.60834C13.5376 4.60834 12.3351 5.85264 12.3351 7.37672C12.3351 8.90075 13.5376 10.1434 15.0125 10.1434Z" fill="#FCBF66" fill-opacity="0.5"/>
<path fill-rule="evenodd" clip-rule="evenodd" d="M18.6066 8.98316C17.8775 9.18745 17.9041 9.36418 18.2578 10.0061C18.5917 10.612 19.163 11.9713 18.595 12.5926C18.5634 12.6235 18.5302 12.651 18.4953 12.675C19.0666 12.8724 19.6895 12.953 20.0599 12.5926C20.6279 11.9713 20.0565 10.612 19.7227 10.0061C19.3689 9.36418 19.3424 9.18745 20.0715 8.98316C20.7342 8.79607 22.1261 8.2503 22.151 7.37667C22.1261 6.51854 20.7923 5.98131 20.1396 5.79597C19.442 5.5969 19.3058 5.5042 19.6829 4.81941C20.0267 4.19639 20.6495 2.80617 20.0599 2.16086C19.6962 1.80557 19.0583 1.88452 18.492 2.07507C18.5285 2.1008 18.5634 2.12829 18.5949 2.16086C19.1845 2.80617 18.5617 4.19639 18.2179 4.81941C17.8408 5.5042 17.977 5.5969 18.6746 5.79597C19.3274 5.98137 20.661 6.5186 20.686 7.37667C20.6612 8.2503 19.2694 8.79607 18.6066 8.98316Z" fill="#F585B0" fill-opacity="0.5"/>
<path fill-rule="evenodd" clip-rule="evenodd" d="M15.0124 10.1434C16.4923 10.1434 17.6915 8.9042 17.6915 7.37672C17.6915 5.84749 16.4923 4.60834 15.0124 4.60834C14.7599 4.60834 14.5141 4.64436 14.28 4.71302C15.4044 5.04252 16.2266 6.11008 16.2266 7.37672C16.2266 8.64167 15.4044 9.70917 14.28 10.0387C14.5141 10.1074 14.7583 10.1434 15.0124 10.1434Z" fill="#F7B551" fill-opacity="0.5"/>
<path fill-rule="evenodd" clip-rule="evenodd" d="M29.1436 20.0568C29.1719 19.1712 27.9361 18.6254 27.2535 18.4727C27.0841 18.4332 26.5775 18.3834 26.6655 18.1191C26.7154 17.9715 27.0409 17.6094 27.1555 17.4394C27.5259 16.8851 28.0291 15.8312 27.5259 15.2117C27.1455 14.7895 26.4877 14.8598 25.9015 15.0726C25.9596 15.1104 26.0127 15.1567 26.0609 15.2117C26.5642 15.8312 26.0609 16.8851 25.6905 17.4394C25.5759 17.6094 25.2504 17.9715 25.2006 18.1191C25.1125 18.3834 25.6191 18.4332 25.7885 18.4727C26.4712 18.6254 27.7069 19.1712 27.6787 20.0568C27.6372 20.7433 26.7303 21.2754 25.4929 21.4264C25.5975 21.4384 25.7055 21.4488 25.8134 21.4556C27.6006 21.5688 29.0905 20.9424 29.1436 20.0568Z" fill="#54D0F2" fill-opacity="0.5"/>
<path fill-rule="evenodd" clip-rule="evenodd" d="M25.1176 25.5284C25.194 25.2143 25.2089 25.2555 24.9532 25.0684C24.1094 24.4522 23.0032 24.1896 21.8838 24.387C22.4718 24.4934 23.0199 24.7269 23.4883 25.0684C23.744 25.2555 23.7291 25.2143 23.6527 25.5284C23.3421 26.8139 22.3787 27.9587 21.0018 28.4856C20.7344 28.5885 20.4636 28.6623 20.1946 28.7104C20.9204 28.8408 21.7061 28.7773 22.4668 28.4856C23.8437 27.9587 24.807 26.8139 25.1176 25.5284Z" fill="#95D6A4" fill-opacity="0.5"/>
<path fill-rule="evenodd" clip-rule="evenodd" d="M20.5334 21.4315C20.5351 20.8531 20.3591 20.2541 19.9969 19.7306C19.4405 18.9257 18.5786 18.4949 17.7431 18.5138C17.5388 18.5172 17.5604 18.5018 17.4906 18.6992C17.4806 18.7284 17.4707 18.7592 17.4607 18.7884C17.8693 18.9944 18.2413 19.3119 18.532 19.7307C19.0685 20.5064 19.1947 21.447 18.9472 22.2399C19.2163 22.3755 19.502 22.463 19.7893 22.4991C20.0202 22.1352 20.2677 21.7816 20.5334 21.4315Z" fill="#95D6A4" fill-opacity="0.5"/>
<path fill-rule="evenodd" clip-rule="evenodd" d="M12.1242 21.2977C12.6806 20.4928 12.7968 19.511 12.5096 18.6992C12.4398 18.5018 12.4614 18.5172 12.2571 18.5138C11.8568 18.5052 11.4499 18.5996 11.0745 18.7884C11.322 19.5813 11.1957 20.5218 10.6592 21.2976C10.4483 21.6031 10.1942 21.8537 9.91351 22.0477C10.0148 22.197 10.1145 22.3463 10.2108 22.499C10.9333 22.4099 11.6425 21.9945 12.1242 21.2977Z" fill="#95D6A4" fill-opacity="0.5"/>
<path fill-rule="evenodd" clip-rule="evenodd" d="M10.8951 26.1135C10.42 25.4614 9.7457 24.9276 8.92351 24.6118C8.16115 24.32 7.37717 24.2565 6.65137 24.3869C6.92043 24.435 7.19113 24.5088 7.45855 24.6118C8.93675 25.1781 9.93829 26.4551 10.1675 27.8539C9.65599 28.2915 9.02312 28.5867 8.3405 28.7103C9.41347 28.9008 10.4765 28.6674 11.3053 28.1027C11.2139 27.3647 11.0778 26.7211 10.8951 26.1135Z" fill="#95D6A4" fill-opacity="0.5"/>
</svg>
