<svg width="34" height="24" viewBox="0 0 34 24" fill="none" xmlns="http://www.w3.org/2000/svg">
<rect x="0.5" y="0.5" width="33" height="23" rx="3.5" fill="white" stroke="#D9D9D9"/>
<path fill-rule="evenodd" clip-rule="evenodd" d="M16.0574 15.5279V12.5933H17.572C18.1927 12.5933 18.7165 12.3853 19.1436 11.9752L19.2461 11.8712C20.0262 11.022 19.9749 9.69908 19.1436 8.91343C18.7279 8.49749 18.1585 8.27219 17.572 8.28375H15.1406V15.5279H16.0574ZM16.0575 11.7036V9.17333H17.5951C17.9254 9.17333 18.2387 9.30042 18.4722 9.5315C18.9676 10.0168 18.979 10.8255 18.5006 11.3281C18.2671 11.5765 17.9368 11.7152 17.5951 11.7036H16.0575ZM23.5223 10.9584C23.1295 10.5945 22.5942 10.4096 21.9166 10.4096C21.0454 10.4096 20.3906 10.7331 19.9578 11.3744L20.7664 11.8885C21.0625 11.4495 21.4668 11.2299 21.9792 11.2299C22.3038 11.2299 22.617 11.3512 22.8618 11.5708C23.101 11.7787 23.2376 12.0791 23.2376 12.3969V12.6106C22.8846 12.4142 22.4405 12.3102 21.8938 12.3102C21.2561 12.3102 20.7436 12.4604 20.3621 12.7666C19.9806 13.0728 19.787 13.4771 19.787 13.9913C19.7756 14.4592 19.9749 14.904 20.328 15.2044C20.6867 15.5279 21.1422 15.6897 21.6775 15.6897C22.3095 15.6897 22.8106 15.4066 23.1921 14.8405H23.2319V15.5279H24.1088V12.472C24.1088 11.8307 23.9152 11.3224 23.5223 10.9584ZM21.0342 14.6152C20.8462 14.4765 20.7323 14.2513 20.7323 14.0086C20.7323 13.7371 20.8576 13.5118 21.1025 13.3327C21.3531 13.1536 21.6663 13.0612 22.0365 13.0612C22.5491 13.0554 22.9477 13.171 23.2324 13.4021C23.2324 13.7949 23.0787 14.1357 22.7768 14.4246C22.5035 14.7018 22.1333 14.8578 21.7461 14.8578C21.4898 14.8636 21.2392 14.7769 21.0342 14.6152ZM26.079 17.7058L29.1424 10.5714H28.146L26.7281 14.1299H26.711L25.2591 10.5714H24.2626L26.2726 15.2102L25.1338 17.7058H26.079Z" fill="#3C4043"/>
<path d="M12.8936 11.9578C12.8936 11.6747 12.8708 11.3917 12.8253 11.1144H8.95898V12.7146H11.174C11.0829 13.2287 10.7868 13.6909 10.354 13.9797V15.0195H11.6751C12.4495 14.2974 12.8936 13.2287 12.8936 11.9578Z" fill="#4285F4"/>
<path d="M8.95817 16.0247C10.0628 16.0247 10.9967 15.655 11.6743 15.0196L10.3532 13.9797C9.98311 14.2339 9.5105 14.3783 8.95817 14.3783C7.88768 14.3783 6.98232 13.6447 6.65776 12.6626H5.29688V13.7371C5.99155 15.1409 7.40938 16.0247 8.95817 16.0247Z" fill="#34A853"/>
<path d="M6.65846 12.6626C6.48761 12.1485 6.48761 11.5882 6.65846 11.0682V9.99951H5.29736C4.71078 11.1722 4.71078 12.5587 5.29736 13.7314L6.65846 12.6626Z" fill="#FBBC04"/>
<path d="M8.95817 9.35247C9.54466 9.34092 10.1084 9.56621 10.5297 9.97637L11.7027 8.78634C10.9568 8.08156 9.97741 7.69451 8.95817 7.70606C7.40938 7.70606 5.99155 8.5957 5.29688 9.99948L6.65776 11.074C6.98232 10.0861 7.88768 9.35247 8.95817 9.35247Z" fill="#EA4335"/>
</svg>
