<svg width="286" height="243" viewBox="0 0 286 243" fill="none" xmlns="http://www.w3.org/2000/svg">
<g clip-path="url(#clip0)">
<path d="M131.161 131.895C131.161 130.986 130.441 131.201 130.042 131.025C114.993 124.603 99.6912 123.391 83.9709 127.917C73.0952 131.045 62.4139 134.925 51.4603 137.691C42.9971 139.851 34.4754 141.337 25.7592 139.949C18.5606 138.805 12.3834 135.726 8.62842 128.493C6.8774 125.112 6.1089 121.563 7.8891 117.839C9.53312 114.399 12.6266 112.952 15.4671 114.311L15.6422 114.399L15.5839 114.526C10.6421 114.203 7.87938 118.084 9.44557 123.323C10.9631 128.366 14.5138 131.221 18.8816 132.98C23.2494 134.739 27.7729 134.935 32.345 134.466C43.143 133.488 53.3184 129.578 63.6202 126.324C73.1146 123.284 82.6382 120.459 92.5412 119.433C98.6854 118.76 104.897 119.09 110.937 120.41C112.347 120.41 113.641 121.114 115.013 121.388C115.266 121.388 115.013 120.987 115.071 121.26C115.071 121.368 115.071 121.427 114.935 121.397C113.653 121.151 112.416 120.709 111.267 120.088C103.427 117.507 95.2456 117.057 87.2492 115.503C79.4669 114.008 72.4045 110.89 66.8207 104.537C60.3711 97.1667 59.7485 86.4442 65.235 78.9277C70.0114 72.3887 79.1654 70.4925 85.0021 74.8323C91.656 79.7195 91.7241 90.5983 85.0896 94.5765C82.2296 96.287 79.2529 96.4727 76.4026 94.5081C75.2212 93.6898 74.2879 92.5593 73.706 91.2414C73.124 89.9235 72.916 88.4697 73.1049 87.0405C73.1978 85.8926 73.6038 84.7927 74.2782 83.8616C74.9527 82.9304 75.8695 82.2041 76.9279 81.7623C79.1848 81.0195 80.9553 81.6841 82.7647 84.2157C81.539 83.3946 80.8191 82.554 79.7296 82.4563C79.1313 82.4057 78.5291 82.476 77.9583 82.6632C77.3876 82.8503 76.8599 83.1505 76.4066 83.5459C75.9532 83.9413 75.5832 84.424 75.3186 84.9654C75.0539 85.5069 74.8999 86.0961 74.8656 86.6984C74.5446 89.5525 76.6458 92.5043 79.2529 92.7585C80.5316 92.9543 81.8387 92.7179 82.9691 92.0863C84.0996 91.4547 84.9891 90.4637 85.4982 89.269C86.1517 88.0024 86.4354 86.576 86.3166 85.1544C86.1978 83.7328 85.6814 82.3739 84.827 81.2345C81.2277 75.9857 73.5718 76.5428 69.5445 82.2119C65.7895 87.5487 66.344 94.9186 70.9939 100.392C75.4104 105.553 81.179 108.016 87.2492 109.756C93.3194 111.496 99.6328 111.916 105.674 113.851C119.334 118.046 131.767 125.533 141.891 135.658C142.027 135.795 142.124 135.961 142.601 136.577L133.359 133.048C132.795 132.335 131.599 132.931 131.161 131.895Z" fill="#2B3944"/>
<path d="M152.874 133.039L143.788 136.421C146.318 133.331 149.223 130.573 152.436 128.21C163.368 119.79 176.141 114.111 189.694 111.643C196.231 110.489 202.671 109.14 208.547 105.68C213.411 102.807 217.302 98.9457 218.518 92.7194C219.432 87.8323 218.197 83.6586 214.695 80.5015C211.582 77.6963 207.944 76.5918 204.072 78.4587C201.222 79.8271 199.714 82.3684 199.616 85.8481C199.52 87.1136 199.793 88.3799 200.401 89.4925C201.009 90.605 201.926 91.5157 203.041 92.1134C204.171 92.7775 205.506 92.9962 206.788 92.7271C208.069 92.458 209.206 91.7203 209.977 90.657C210.681 89.6706 211.045 88.4803 211.016 87.2668C210.986 86.0533 210.563 84.8826 209.811 83.9323C208.012 81.9286 205.92 81.9774 203.245 84.1278C203.556 83.316 204.116 82.6242 204.843 82.1518C205.57 81.6794 206.427 81.4506 207.292 81.4985C208.303 81.4922 209.294 81.7831 210.142 82.3354C210.991 82.8876 211.66 83.6771 212.068 84.6067C212.687 85.8127 212.97 87.1647 212.886 88.519C212.802 89.8733 212.355 91.1796 211.591 92.2991C210.889 93.5401 209.829 94.538 208.551 95.1609C207.273 95.7839 205.836 96.0028 204.432 95.7886C202.556 95.6199 200.778 94.8716 199.343 93.6464C197.907 92.4212 196.885 90.7793 196.416 88.9465C195.736 86.8936 195.599 84.698 196.021 82.5762C196.442 80.4543 197.406 78.4793 198.819 76.8459C202.535 72.2715 208.401 71.1866 214.072 73.8256C225.152 78.9865 227.857 93.8142 219.51 103.999C214.413 110.225 207.7 113.226 200.453 115.171C195.404 116.52 190.2 116.559 185.122 117.556C181.085 118.348 177.116 119.403 173.166 120.547C172.571 120.888 171.946 121.172 171.299 121.397C171.864 121.136 172.463 120.958 173.079 120.87C177.937 119.738 182.908 119.168 187.894 119.169C196.873 119.296 205.541 121.388 214.16 123.851C223.051 126.392 231.728 129.715 240.668 132.09C247.653 133.928 254.676 135.424 261.914 134.348C267.751 133.469 272.799 131.035 275.854 125.102C276.757 123.289 277.05 121.232 276.691 119.237C276.175 115.904 273.831 114.272 270.338 114.663C272.974 112.991 276.321 114.428 277.994 117.918C279.667 121.407 279.064 124.936 277.459 128.23C274.229 134.827 268.821 138.17 262.332 139.627C253.528 141.581 244.822 140.33 236.223 138.248C224.695 135.482 213.527 131.26 202.097 128.044C188.313 124.134 174.684 124.134 161.123 129.129C159.479 130.536 157.31 130.644 155.549 131.758C154.674 132.188 153.623 132.266 152.874 133.039Z" fill="#2C3944"/>
<path d="M139.109 48.4806C139.177 50.1715 139.255 51.8625 139.304 53.5535C139.304 54.3745 139.401 55.2933 138.263 55.2835C137.29 55.2835 136.317 55.6452 135.986 54.0031C135.581 51.6893 134.714 49.4817 133.438 47.5129C132.811 46.4637 131.908 45.609 130.828 45.0432C129.748 44.4774 128.534 44.2226 127.319 44.3069C126.343 44.3068 125.392 44.6142 124.6 45.1858C123.808 45.7575 123.214 46.5646 122.902 47.4934C122.519 48.4675 122.407 49.5281 122.579 50.5614C122.75 51.5946 123.198 52.5614 123.875 53.358C125.373 55.2249 127.513 55.87 129.498 56.7986C131.21 57.6 132.99 58.2549 134.644 59.1639C139.508 61.803 141.142 65.2045 140.559 70.8247C140.278 73.0717 139.346 75.1859 137.877 76.9034C136.408 78.6209 134.468 79.8655 132.3 80.4818C128.758 81.4185 124.999 81.0258 121.725 79.3773C120.898 78.9863 120.159 78.3999 119.449 79.7976C119.001 80.7164 117.824 80.2863 117.017 80.169C116.21 80.0517 116.511 79.0841 116.492 78.4976C116.336 74.9104 116.239 71.3135 116.112 67.7458C116.112 66.9052 116.239 66.2015 117.192 66.2797C117.97 66.3383 118.943 65.8007 119.274 67.2571C119.745 69.4841 120.647 71.5963 121.93 73.4736C122.652 74.652 123.65 75.6355 124.837 76.339C126.024 77.0424 127.363 77.4445 128.739 77.5104C131.745 77.6277 133.866 76.3081 134.576 73.8548C135.024 72.4451 135.032 70.931 134.597 69.517C134.162 68.103 133.306 66.8571 132.144 65.9473C130.746 65.091 129.267 64.3771 127.727 63.8165C125.957 62.9955 124.118 62.3015 122.426 61.3241C120.395 60.2336 118.781 58.498 117.836 56.3883C116.891 54.2786 116.668 51.9137 117.202 49.6633C117.61 47.4138 118.722 45.3538 120.375 43.7824C122.028 42.211 124.137 41.2101 126.395 40.925C129.125 40.5964 131.886 41.1877 134.245 42.6062C134.848 42.9679 135.374 43.3882 135.918 42.3618C136.551 41.1596 137.747 41.707 138.632 41.8438C139.518 41.9806 138.992 42.9874 139.012 43.5934C139.07 45.216 139.012 46.8483 139.012 48.4806H139.109Z" fill="#2C3844"/>
<path d="M145.267 73.249C145.267 71.4212 145.267 69.5934 145.267 67.7558C145.267 66.9445 145.335 66.1724 146.317 66.2603C147.086 66.3287 148.078 65.7423 148.418 67.2378C148.909 69.5298 149.844 71.7021 151.171 73.6302C151.909 74.7983 152.921 75.7659 154.119 76.4478C155.317 77.1297 156.663 77.5048 158.039 77.5399C160.958 77.5399 163.01 76.2986 163.72 73.9234C164.184 72.5176 164.201 71.002 163.771 69.5857C163.34 68.1694 162.483 66.9221 161.318 66.016C160.189 65.3212 159.005 64.7229 157.777 64.2273C155.782 63.2498 153.71 62.5265 151.775 61.4611C149.707 60.4126 148.046 58.7017 147.054 56.5988C146.063 54.496 145.796 52.121 146.298 49.8492C146.666 47.5576 147.762 45.4472 149.422 43.8335C151.083 42.2197 153.218 41.1891 155.51 40.8959C158.205 40.528 160.945 41.0786 163.292 42.4598C163.964 42.8605 164.596 43.4372 165.238 42.2057C165.802 41.1696 166.979 41.6583 167.816 41.7951C168.652 41.932 168.215 42.929 168.234 43.5252C168.351 46.7703 168.429 50.0251 168.487 53.2995C168.487 54.1206 168.75 55.2544 167.514 55.2544C166.541 55.3033 165.491 55.5574 165.16 53.8176C164.782 51.6336 163.975 49.5471 162.787 47.6793C162.183 46.6168 161.302 45.7396 160.24 45.1421C159.177 44.5445 157.972 44.2491 156.755 44.2876C155.75 44.2476 154.759 44.5327 153.927 45.101C153.095 45.6693 152.467 46.4908 152.134 47.4447C151.731 48.4471 151.616 49.5435 151.803 50.6083C151.991 51.6732 152.473 52.6635 153.195 53.4657C154.625 55.2055 156.638 55.8311 158.516 56.7108C160.393 57.5905 162.125 58.2063 163.837 59.1348C168.701 61.7739 170.433 65.3513 169.771 70.9911C169.438 73.23 168.461 75.3224 166.961 77.0118C165.461 78.7011 163.503 79.9139 161.327 80.5015C157.724 81.3804 153.927 80.9294 150.627 79.2309C149.907 78.8888 149.343 78.5076 148.808 79.5925C148.273 80.6775 147.115 80.2279 146.259 80.1594C145.403 80.091 145.763 79.094 145.714 78.5076C145.568 76.758 145.51 74.9888 145.422 73.2392L145.267 73.249Z" fill="#2C3844"/>
<path d="M216.348 118.142C225.57 118.641 234.714 118.963 243.693 116.383C246.753 115.515 249.577 113.961 251.952 111.838C252.653 111.212 253.402 110.284 254.404 110.997C255.406 111.711 255.221 112.894 255.075 113.93C254.866 115.236 254.383 116.484 253.659 117.589C252.934 118.694 251.985 119.632 250.872 120.342C245.931 123.87 240.337 124.251 234.695 123.958C226.436 123.489 218.498 121.27 210.706 118.367C210.473 118.279 210.21 118.23 210.181 117.771C214.539 116.311 218.769 114.49 222.827 112.327C224.662 111.3 226.418 110.137 228.08 108.847C230.789 106.707 232.694 103.705 233.479 100.334C233.781 99.2095 234.17 97.8509 235.629 97.9389C237.088 98.0268 237.438 99.1704 237.857 100.343C239.15 103.96 237.769 108.72 234.442 111.779C230.483 115.406 225.687 116.813 220.726 117.556C219.296 117.81 217.817 117.957 216.348 118.142Z" fill="#2C3944"/>
<path d="M76.286 117.908C71.9019 119.706 67.3798 121.145 62.7642 122.209C56.5967 123.616 50.3903 124.623 44.0575 123.714C39.9717 123.137 36.1195 121.935 33.1233 118.651C32.2977 117.867 31.6589 116.906 31.2546 115.84C30.8504 114.774 30.6911 113.63 30.7886 112.493C30.9832 110.802 31.9268 110.147 33.0552 111.173C41.0321 118.348 50.6724 118.172 60.1766 118.543C63.6474 118.655 67.1216 118.587 70.5854 118.338C66.4726 118.064 62.4103 117.272 58.4936 115.982C54.5149 114.516 50.9448 112.405 48.7657 108.27C47.992 106.963 47.5468 105.486 47.4689 103.967C47.3909 102.447 47.6824 100.932 48.3183 99.5516C48.7171 98.7012 49.2911 97.9584 50.2638 97.9779C51.2366 97.9975 51.8689 98.8087 52.0732 99.7177C53.8145 107.332 59.3983 110.587 65.2253 113.539C68.7791 115.315 72.4799 116.777 76.286 117.908V117.908Z" fill="#2C3944"/>
<path d="M115.762 143.194C84.2241 143.536 52.696 144.699 21.1484 143.986C18.0355 143.917 14.9323 143.634 11.8194 143.399C11.0509 143.341 10.4186 143.272 9.92245 144.171C9.42633 145.071 8.71619 144.953 7.92823 144.602C7.40293 144.367 7.26673 143.282 6.42041 143.81C5.59051 144.316 4.88544 145.004 4.3581 145.823C4.0468 146.312 4.21218 147.417 3.31721 147.192C2.93042 147.071 2.60231 146.81 2.39716 146.459C2.19202 146.109 2.12464 145.694 2.20823 145.296C2.34442 144.318 1.65374 144.435 1.23544 144.24C0.817143 144.044 0 143.683 0 142.92C0.0249209 142.619 0.152855 142.336 0.362088 142.118C0.571322 141.901 0.848964 141.763 1.14789 141.728C2.12068 141.581 2.28605 141.034 2.27633 140.096C2.28115 139.796 2.37693 139.506 2.55082 139.263C2.72471 139.02 2.96838 138.837 3.24912 138.737C3.97871 138.483 3.95925 139.323 4.22191 139.714C4.61387 140.461 5.14567 141.125 5.7881 141.669C6.40095 142.148 6.91653 142.5 7.62667 141.669C7.75294 141.477 7.92626 141.322 8.12993 141.217C8.33359 141.112 8.56073 141.061 8.78946 141.07C9.01819 141.079 9.24079 141.147 9.43583 141.267C9.63086 141.387 9.79175 141.556 9.90299 141.757C10.115 142.063 10.4146 142.297 10.7621 142.428C11.1096 142.559 11.4886 142.581 11.8486 142.49C30.5942 141.229 49.3496 141.64 68.105 141.992L115.772 142.901C115.918 142.979 115.956 143.038 115.908 143.106C115.892 143.131 115.87 143.152 115.845 143.167C115.82 143.182 115.791 143.191 115.762 143.194Z" fill="#2B3842"/>
<path d="M170.111 142.891C199.032 142.246 227.953 141.493 256.884 141.757C262.546 141.806 268.217 142.226 273.879 142.461C274.424 142.461 275.124 142.852 275.494 142.324C276.515 140.868 277.507 140.623 278.684 142.07C279.112 142.598 279.492 142.129 279.823 141.914C280.976 141.151 281.8 139.977 282.128 138.629C282.76 138.629 283.334 139.02 283.393 139.45C283.436 140.04 283.647 140.605 284 141.079C284.354 141.552 284.835 141.913 285.387 142.119C286.36 142.549 286.126 143.517 285.231 143.937C284.336 144.357 283.461 144.67 283.529 146.077C283.51 146.377 283.386 146.659 283.18 146.876C282.973 147.092 282.697 147.228 282.4 147.26C281.807 147.338 281.934 146.566 281.729 146.205C281.357 145.508 280.866 144.883 280.28 144.357C279.638 143.82 279.074 143.292 278.247 144.357C277.42 145.423 276.515 145.09 275.854 144.083C275.724 143.836 275.519 143.636 275.269 143.513C275.019 143.39 274.737 143.35 274.463 143.399C265.571 144.269 256.651 144.22 247.74 144.25C221.864 144.318 195.997 143.526 170.121 143.272C169.975 143.214 169.927 143.145 169.966 143.067C170.004 142.989 170.063 142.891 170.111 142.891Z" fill="#2B3941"/>
<path d="M159.285 143.468C159.285 146.4 157.699 148.355 155.102 148.502C154.117 148.534 153.158 148.178 152.431 147.509C151.704 146.841 151.266 145.913 151.21 144.924C151.085 144.267 151.172 143.587 151.459 142.984C151.746 142.381 152.218 141.886 152.806 141.572C153.281 141.247 153.859 141.112 154.428 141.194C154.996 141.275 155.514 141.567 155.88 142.011C156.333 142.445 156.602 143.039 156.629 143.668C156.656 144.297 156.44 144.912 156.026 145.384C155.886 144.896 155.704 144.422 155.481 143.966C155.393 143.757 155.255 143.573 155.079 143.43C154.903 143.287 154.696 143.19 154.474 143.147C154.252 143.103 154.023 143.115 153.807 143.181C153.591 143.248 153.394 143.366 153.234 143.526C153.044 143.666 152.885 143.844 152.767 144.048C152.648 144.252 152.573 144.479 152.546 144.714C152.518 144.948 152.539 145.186 152.607 145.413C152.676 145.639 152.79 145.849 152.942 146.029C153.191 146.359 153.512 146.626 153.881 146.811C154.249 146.995 154.656 147.091 155.068 147.091C155.479 147.091 155.886 146.995 156.255 146.811C156.623 146.626 156.945 146.359 157.193 146.029C157.704 145.443 158.043 144.726 158.173 143.959C158.304 143.191 158.22 142.402 157.932 141.679C157.661 140.77 157.121 139.966 156.385 139.373C155.648 138.779 154.749 138.425 153.808 138.356C151.97 138.335 150.193 139.016 148.837 140.262C147.123 141.757 145.498 143.353 143.973 145.041C143.759 145.256 143.448 145.432 143.584 145.853C143.915 146.879 146.804 148.081 147.708 147.534C148.009 147.395 148.262 147.169 148.435 146.886C148.609 146.602 148.694 146.273 148.681 145.941C148.663 145.711 148.583 145.49 148.449 145.302C148.315 145.114 148.133 144.967 147.922 144.875C146.95 144.426 146.551 145.413 145.977 146.068C145.75 145.598 145.714 145.059 145.875 144.563C146.037 144.067 146.384 143.653 146.843 143.409C147.208 143.204 147.633 143.135 148.044 143.214C148.455 143.292 148.825 143.514 149.09 143.839C149.456 144.186 149.706 144.638 149.804 145.135C149.901 145.631 149.842 146.145 149.635 146.605C149.489 147.069 149.224 147.485 148.865 147.812C148.506 148.138 148.068 148.362 147.594 148.462C147.121 148.561 146.63 148.532 146.171 148.378C145.712 148.223 145.303 147.949 144.985 147.583C143.477 146.224 142.494 146.214 140.977 147.583C139.148 149.196 137.28 148.697 136.414 146.801C136.164 146.321 136.07 145.774 136.145 145.238C136.22 144.701 136.46 144.202 136.833 143.81C137.1 143.485 137.472 143.265 137.884 143.186C138.296 143.107 138.722 143.176 139.09 143.38C139.539 143.604 139.888 143.99 140.068 144.46C140.248 144.931 140.246 145.452 140.062 145.921C139.566 145.843 139.556 145.286 139.284 145.09C139.161 144.963 139.011 144.867 138.845 144.808C138.679 144.748 138.502 144.729 138.327 144.749C138.152 144.77 137.984 144.831 137.836 144.927C137.688 145.024 137.565 145.153 137.475 145.305C136.959 146.019 137.29 146.576 137.718 147.104C137.948 147.415 138.278 147.636 138.652 147.73C139.026 147.825 139.421 147.786 139.77 147.622C140.795 147.236 141.685 146.556 142.329 145.667C142.533 145.384 142.183 145.188 142.018 145.032C139.955 143.077 138.204 140.731 135.753 139.275C132.659 137.437 129.42 138.297 128.087 141.405C127.027 143.849 128.35 146.918 130.558 147.045C130.865 147.1 131.179 147.092 131.482 147.023C131.785 146.953 132.072 146.824 132.325 146.642C132.578 146.46 132.792 146.229 132.954 145.962C133.117 145.696 133.225 145.399 133.272 145.09C133.336 144.881 133.354 144.66 133.326 144.442C133.297 144.225 133.222 144.016 133.105 143.831C132.989 143.645 132.834 143.487 132.651 143.367C132.469 143.247 132.262 143.168 132.047 143.135C130.51 142.852 130.15 144.015 130.004 145.442C129.602 145.058 129.347 144.545 129.281 143.992C129.215 143.439 129.344 142.88 129.644 142.412C129.859 141.939 130.23 141.554 130.694 141.322C131.158 141.091 131.687 141.027 132.192 141.141C132.773 141.222 133.314 141.483 133.739 141.888C134.165 142.293 134.454 142.821 134.566 143.399C134.799 144.275 134.734 145.203 134.381 146.037C134.029 146.871 133.409 147.563 132.62 148.003C131.756 148.413 130.777 148.507 129.851 148.268C128.925 148.028 128.112 147.472 127.552 146.693C127.186 146.306 126.908 145.843 126.74 145.336C126.572 144.829 126.517 144.292 126.579 143.761C126.488 143.581 126.44 143.382 126.44 143.179C126.44 142.977 126.488 142.778 126.579 142.598C127.076 138.512 130.471 136.391 134.362 137.799C136.93 138.776 138.769 140.731 140.588 142.784C142.903 145.384 142.942 145.374 145.247 142.784C146.745 140.93 148.564 139.363 150.617 138.16C154.742 136.02 159.051 138.444 159.275 142.549C159.365 142.685 159.414 142.844 159.416 143.007C159.417 143.17 159.372 143.33 159.285 143.468V143.468Z" fill="#31353A"/>
<path d="M38.2305 193.337C41.3823 192.779 44.5536 193.121 47.7249 193.073C68.2897 192.731 88.8544 193.415 109.409 193.737L119.137 193.855C119.283 193.913 119.342 193.982 119.293 194.05C119.276 194.077 119.253 194.1 119.226 194.117C119.199 194.133 119.169 194.144 119.137 194.148C94.2048 194.646 69.2624 195.418 44.3201 194.949C44.1592 194.597 43.8923 194.305 43.5572 194.114C43.222 193.923 42.8356 193.842 42.4524 193.884C41.0418 193.913 39.5243 194.431 38.2305 193.337Z" fill="#303742"/>
<path d="M264.696 160.485C265.13 160.46 265.565 160.46 265.999 160.485C266.525 160.544 267.313 160.143 267.517 160.827C267.819 161.804 266.807 161.443 266.427 161.756C265.873 162.195 265.951 162.811 265.951 163.417C265.951 166.193 265.951 168.979 265.951 171.755C265.951 172.732 265.951 173.71 267.157 173.856C267.29 173.869 267.412 173.933 267.498 174.036C267.583 174.138 267.625 174.27 267.614 174.404C267.614 174.853 267.274 174.922 266.953 174.931H262.458C262.225 174.931 261.933 174.931 261.855 174.619C261.777 174.306 261.972 174.071 262.283 173.885C263.256 173.279 264.073 169.526 263.46 168.412C263.382 168.276 263.265 168.167 263.125 168.098C262.985 168.028 262.827 168.001 262.672 168.021H261.544C257.594 168.021 257.604 168.021 257.935 172.302C257.993 173.035 258.11 173.651 258.908 173.798C259.307 173.885 259.647 174.042 259.511 174.579C259.375 175.117 259.044 174.941 258.752 174.941C257.439 174.941 256.135 174.941 254.861 174.941C254.511 174.941 254.024 175.058 253.956 174.511C253.888 173.964 254.306 173.886 254.686 173.807C255.552 173.631 255.474 172.908 255.474 172.224C255.474 169.292 255.474 166.359 255.474 163.476C255.474 162.577 255.357 161.853 254.423 161.628C254.343 161.621 254.265 161.596 254.195 161.556C254.124 161.515 254.063 161.461 254.016 161.395C253.968 161.33 253.934 161.255 253.918 161.175C253.901 161.096 253.901 161.014 253.917 160.934C253.985 160.524 254.326 160.485 254.647 160.485H258.937C259.18 160.485 259.462 160.485 259.54 160.817C259.618 161.15 259.414 161.374 259.122 161.57C258.198 162.186 257.507 165.626 258.091 166.525C258.295 166.848 258.616 166.828 258.917 166.828H260.707C263.383 166.828 264.316 165.421 263.47 162.645C263.418 162.456 263.328 162.28 263.206 162.127C263.084 161.974 262.932 161.848 262.76 161.756C262.371 161.531 261.593 161.628 261.846 160.778C262.06 160.113 262.711 160.514 263.169 160.456C263.678 160.43 264.188 160.44 264.696 160.485V160.485Z" fill="#2E3943"/>
<path d="M233.333 195.008C226.67 195.321 219.996 195.086 213.333 195.008C197.924 194.803 182.524 194.461 167.125 194.167C166.979 194.099 166.931 194.04 166.979 193.972C166.994 193.945 167.014 193.921 167.04 193.904C167.065 193.887 167.095 193.877 167.125 193.874C188.526 193.62 210.015 192.965 231.465 192.994C232.205 192.994 232.954 192.994 233.703 193.063C233.828 193.389 233.859 193.745 233.794 194.088C233.729 194.432 233.569 194.751 233.333 195.008V195.008Z" fill="#303541"/>
<path d="M126.278 170.396C126.278 167.796 126.278 165.783 126.278 163.769C126.278 162.606 125.84 161.814 124.711 161.619C124.39 161.56 124.099 161.433 124.108 161.003C124.108 160.368 124.566 160.495 124.906 160.485C126.219 160.485 127.523 160.485 128.797 160.485C129.147 160.485 129.595 160.407 129.614 161.013C129.614 161.443 129.323 161.55 129.001 161.619C127.659 161.892 127.688 163.065 127.678 164.15C127.678 167.268 127.678 170.386 127.678 173.504C127.678 174.022 128.048 174.794 127.202 175.019C126.531 175.185 126.229 174.716 125.85 174.198C123.904 171.266 121.851 168.334 119.848 165.401C119.721 165.206 119.565 165.04 119.206 164.59C119.206 167.366 119.206 169.77 119.206 172.165C119.205 172.564 119.351 172.948 119.615 173.245C119.878 173.543 120.242 173.732 120.636 173.778C120.995 173.876 121.414 173.885 121.394 174.452C121.375 175.019 120.888 174.941 120.558 174.951C119.189 174.951 117.818 174.951 116.443 174.951C116.083 174.951 115.645 174.951 115.626 174.413C115.626 173.993 115.917 173.866 116.238 173.807C117.532 173.573 117.698 172.556 117.698 171.383C117.698 169.145 117.698 166.907 117.698 164.668C117.698 163.241 117.464 162.107 116.063 161.658C115.665 161.531 115.324 161.394 115.47 160.856C115.616 160.319 115.947 160.524 116.238 160.495C118.184 160.319 119.906 160.426 121.102 162.704C122.697 165.354 124.424 167.921 126.278 170.396Z" fill="#2F3842"/>
<path d="M179.052 167.141C180.355 165.607 181.318 164.551 182.203 163.417C182.709 162.772 183.663 161.98 181.98 161.462C181.513 161.316 181.552 160.593 182.223 160.563C183.594 160.505 184.966 160.563 186.347 160.563C186.668 160.563 186.96 160.651 186.96 161.111C186.96 161.57 186.756 161.56 186.503 161.638C184.091 162.411 183.293 165.108 181.483 166.614C181.007 167.014 181.299 167.464 181.649 167.806C183.594 169.761 184.499 173.006 187.398 173.974C187.521 174.02 187.621 174.111 187.679 174.229C187.736 174.347 187.747 174.483 187.709 174.609C187.686 174.736 187.613 174.848 187.507 174.921C187.402 174.994 187.271 175.023 187.145 175C185.414 175 183.604 175.508 182.485 173.182C181.599 171.619 180.488 170.196 179.188 168.959C179.528 170.66 177.68 172.869 180.306 173.993C180.42 174.062 180.505 174.171 180.545 174.299C180.584 174.427 180.575 174.565 180.52 174.687C180.413 175.029 180.141 175.01 179.908 175.01C178.478 175.01 177.038 175.01 175.608 175.01C175.287 175.01 174.937 175.01 174.917 174.541C174.913 174.459 174.926 174.378 174.954 174.302C174.982 174.226 175.024 174.156 175.08 174.096C175.135 174.037 175.202 173.99 175.276 173.957C175.35 173.924 175.43 173.906 175.511 173.905C176.483 173.778 176.483 172.996 176.483 172.234C176.483 169.301 176.483 166.369 176.483 163.437C176.483 162.635 176.415 161.932 175.559 161.697C175.19 161.589 174.791 161.492 174.937 160.935C175.083 160.377 175.511 160.514 175.909 160.514C177.155 160.514 178.4 160.514 179.655 160.514C179.995 160.514 180.472 160.358 180.627 160.896C180.783 161.433 180.355 161.57 179.966 161.638C179.577 161.707 179.188 161.902 179.168 162.352C178.993 163.75 179.052 165.186 179.052 167.141Z" fill="#2E3943"/>
<path d="M56.5288 174.961C55.0404 174.961 53.5423 174.961 52.0442 174.961C51.7037 174.961 51.2368 175.127 51.0714 174.57C50.9061 174.013 51.3535 173.885 51.7524 173.866C52.7835 173.807 52.8906 173.074 52.8808 172.165C52.8808 169.233 52.8808 166.301 52.8808 163.368C52.8808 162.313 52.5987 161.667 51.5773 161.56C51.4956 161.556 51.4157 161.534 51.3431 161.496C51.2705 161.458 51.2071 161.405 51.1571 161.34C51.1071 161.275 51.0719 161.2 51.0537 161.119C51.0355 161.039 51.035 160.956 51.052 160.876C51.1006 160.426 51.4703 160.455 51.7718 160.455C54.7583 160.455 57.7545 160.455 60.741 160.455C61.5678 160.455 61.7137 161.013 61.5873 161.658C61.4608 162.459 62.0931 163.525 61.1301 164.013C60.4102 164.375 60.2254 163.476 59.9822 163.036C59.0094 161.179 57.4529 161.667 55.9937 161.638C55.3323 161.638 55.4101 162.176 55.4003 162.616C55.3565 163.495 55.3565 164.376 55.4003 165.255C55.4003 165.831 54.9529 166.75 55.9743 166.867C56.7914 166.955 57.628 166.955 58.0852 165.978C58.2156 165.658 58.3293 165.332 58.4257 165.001C58.4628 164.843 58.5601 164.706 58.6967 164.62C58.8333 164.534 58.998 164.506 59.1553 164.541C59.5639 164.541 59.632 164.913 59.632 165.255C59.632 166.682 59.632 168.109 59.632 169.536C59.632 169.927 59.632 170.367 59.1067 170.416C58.5814 170.464 58.4841 170.113 58.3771 169.692C58.3059 169.35 58.1846 169.021 58.0171 168.715C57.8051 168.393 57.4969 168.146 57.1369 168.011C56.7769 167.876 56.3835 167.859 56.0132 167.962C55.0404 168.06 55.4879 168.94 55.3906 169.555C55.3412 169.879 55.3412 170.209 55.3906 170.533C55.5657 171.628 54.8167 173.113 56.3634 173.641C57.1944 173.981 58.1254 173.976 58.9529 173.628C59.7804 173.28 60.4372 172.617 60.7799 171.784C60.9647 171.432 61.0912 171.051 61.3052 170.719C61.5192 170.386 62.1515 170.23 62.278 170.484C62.8519 171.54 62.278 172.673 62.278 173.788C62.278 174.589 61.9569 174.843 61.3052 174.834C59.7779 174.961 58.1533 174.961 56.5288 174.961Z" fill="#303943"/>
<path d="M142.134 190.815C142.786 191.401 143.292 191.059 143.876 190.6C144.569 189.843 145.521 189.379 146.541 189.3C146.93 189.327 147.307 189.447 147.641 189.65C147.974 189.853 148.255 190.132 148.461 190.465C148.666 190.798 148.789 191.176 148.821 191.566C148.852 191.957 148.791 192.349 148.642 192.711C148.493 193.109 148.204 193.439 147.83 193.639C147.455 193.839 147.021 193.895 146.609 193.796C145.539 193.552 145.247 192.75 145.461 191.655C145.977 191.567 146.035 192.085 146.288 192.32C146.804 192.779 147.261 192.545 147.572 192.076C147.756 191.878 147.859 191.618 147.859 191.347C147.859 191.077 147.756 190.817 147.572 190.619C147.356 190.342 147.056 190.143 146.718 190.052C146.379 189.96 146.02 189.981 145.695 190.111C144.861 190.429 144.117 190.946 143.525 191.616C143.565 191.857 143.673 192.081 143.837 192.261C145.578 194.001 147.096 196.034 149.245 197.227C152.164 198.859 155.16 197.706 155.948 194.685C156.395 192.946 155.335 190.776 153.847 190.561C153.583 190.477 153.305 190.451 153.031 190.484C152.757 190.516 152.493 190.608 152.256 190.751C152.02 190.894 151.816 191.086 151.659 191.315C151.503 191.543 151.396 191.803 151.347 192.076C151.279 192.247 151.249 192.431 151.259 192.615C151.269 192.799 151.319 192.978 151.405 193.141C151.491 193.304 151.612 193.446 151.758 193.557C151.904 193.669 152.072 193.747 152.251 193.786C153.681 194.177 153.866 192.994 154.109 191.88C154.5 192.262 154.727 192.783 154.742 193.33C154.756 193.878 154.557 194.41 154.187 194.812C153.898 195.198 153.481 195.467 153.011 195.569C152.541 195.671 152.051 195.6 151.629 195.37C151.114 195.14 150.682 194.758 150.392 194.273C150.101 193.789 149.966 193.226 150.004 192.662C150.003 191.873 150.275 191.108 150.774 190.498C151.273 189.888 151.967 189.471 152.738 189.319C153.67 189.22 154.606 189.462 155.374 190.001C156.143 190.539 156.692 191.339 156.921 192.252C156.993 192.72 157.016 193.195 156.989 193.669C157.058 193.764 157.095 193.879 157.095 193.996C157.095 194.114 157.058 194.229 156.989 194.324C156.269 198.234 153.02 199.895 149.537 198.165C147.649 197.05 145.98 195.595 144.615 193.874C142.903 192.017 142.845 191.997 141.142 193.874C139.848 195.488 138.296 196.875 136.551 197.979C132.99 199.934 129.546 198.302 128.827 194.255C128.756 194.157 128.718 194.039 128.718 193.918C128.718 193.797 128.756 193.679 128.827 193.581C128.982 190.727 130.597 189.016 132.932 189.261C133.578 189.32 134.189 189.582 134.678 190.01C135.167 190.439 135.509 191.011 135.656 191.646C135.867 192.213 135.899 192.833 135.745 193.419C135.592 194.006 135.262 194.53 134.8 194.92C134.418 195.312 133.898 195.538 133.352 195.549C132.806 195.56 132.278 195.355 131.881 194.979C131.656 194.801 131.468 194.579 131.329 194.327C131.191 194.075 131.105 193.797 131.076 193.511C131.047 193.224 131.075 192.935 131.16 192.659C131.245 192.384 131.385 192.129 131.57 191.909C131.969 192.076 131.813 192.437 131.891 192.691C131.943 193.012 132.113 193.301 132.367 193.501C132.621 193.702 132.94 193.8 133.263 193.776C133.551 193.793 133.834 193.702 134.06 193.522C134.286 193.342 134.439 193.084 134.488 192.799C134.574 192.441 134.543 192.065 134.402 191.726C134.26 191.387 134.014 191.102 133.7 190.913C133.344 190.594 132.884 190.418 132.406 190.418C131.929 190.418 131.469 190.594 131.113 190.913C130.556 191.34 130.14 191.925 129.918 192.592C129.697 193.26 129.679 193.979 129.867 194.656C130.015 195.282 130.301 195.867 130.706 196.365C131.11 196.864 131.622 197.264 132.203 197.535C132.784 197.806 133.418 197.941 134.058 197.93C134.698 197.919 135.328 197.762 135.899 197.471C138.477 196.396 140.13 194.021 142.125 192.115C142.728 191.538 141.95 191.362 141.881 190.991C141.901 190.873 141.959 190.785 142.134 190.815Z" fill="#363B3E"/>
<path d="M168.964 162.987C168.964 163.486 168.964 163.896 168.964 164.307C168.964 164.717 169.129 165.284 168.448 165.372C167.767 165.46 167.641 165.098 167.475 164.58C167.298 163.659 166.85 162.812 166.191 162.147C165.131 161.169 163.993 161.023 163.117 162.323C162.935 162.565 162.81 162.845 162.75 163.143C162.69 163.44 162.697 163.747 162.771 164.042C162.845 164.336 162.983 164.61 163.176 164.844C163.369 165.077 163.611 165.265 163.886 165.392C164.956 166.076 166.152 166.496 167.261 167.112C169.207 168.187 169.761 169.487 169.353 171.784C169.221 172.627 168.826 173.405 168.224 174.006C167.622 174.607 166.845 175 166.006 175.127C164.207 175.586 162.495 174.374 160.695 174.883C160.325 174.99 160.238 174.521 160.218 174.179C160.15 173.201 160.082 172.146 160.053 171.139C160.053 170.631 159.887 169.966 160.646 169.888C161.201 169.829 161.347 170.269 161.512 170.748C161.811 171.911 162.533 172.919 163.535 173.573C164.761 174.277 165.958 174.306 166.843 172.947C167.004 172.637 167.102 172.298 167.131 171.95C167.16 171.601 167.121 171.25 167.014 170.917C166.907 170.584 166.735 170.276 166.509 170.011C166.283 169.745 166.006 169.527 165.695 169.37C164.722 168.862 163.749 168.539 162.777 168.05C161.923 167.669 161.23 166.997 160.821 166.153C160.412 165.309 160.312 164.347 160.539 163.437C160.688 162.533 161.152 161.713 161.85 161.123C162.547 160.533 163.431 160.214 164.343 160.221C165.705 160.104 166.969 160.661 168.341 160.641C169.401 160.622 168.516 162.254 168.964 162.987Z" fill="#2E3843"/>
<path d="M28.5999 162.84C28.5999 163.417 28.5999 163.818 28.5999 164.228C28.5999 164.639 28.8042 165.206 28.1524 165.362C27.5007 165.519 27.2575 165.049 27.1115 164.463C26.9297 163.546 26.4672 162.708 25.7885 162.068C24.8158 161.189 23.697 161.091 22.8702 162.234C22.6766 162.467 22.5377 162.74 22.464 163.034C22.3902 163.328 22.3835 163.635 22.4443 163.932C22.5051 164.229 22.6318 164.508 22.815 164.749C22.9983 164.99 23.2333 165.186 23.5025 165.323C24.4753 165.988 25.6426 166.379 26.6932 166.946C28.8236 168.089 29.4657 169.458 29.0474 171.833C28.7264 173.7 27.1018 174.873 25.0784 175.185C23.5219 175.41 22.1017 174.276 20.5355 174.882C20.088 175.058 19.9323 174.57 19.9032 174.12C19.8545 173.045 19.7864 171.97 19.7378 170.885C19.7378 170.484 19.7378 170.015 20.1658 169.907C20.5938 169.8 20.9927 170.015 21.1386 170.562C21.3487 171.481 21.8025 172.325 22.4519 173.006C22.8007 173.464 23.2883 173.795 23.841 173.95C24.3937 174.105 24.9816 174.076 25.5162 173.866C25.9187 173.71 26.2608 173.428 26.492 173.062C26.7231 172.696 26.8312 172.265 26.8002 171.833C26.8024 171.234 26.6151 170.65 26.2654 170.165C25.9157 169.68 25.4217 169.32 24.8547 169.135C23.9162 168.77 22.9973 168.355 22.1017 167.894C21.3267 167.496 20.7108 166.844 20.3567 166.045C20.0027 165.246 19.9319 164.35 20.1561 163.505C20.2689 162.66 20.6663 161.879 21.2822 161.292C21.8981 160.705 22.6954 160.348 23.5414 160.28C25.0298 160.025 26.4598 160.661 27.8995 160.641C29.1836 160.612 28.026 162.254 28.5999 162.84Z" fill="#2F3841"/>
<path d="M233.333 195.008C233.25 194.334 233.379 193.65 233.703 193.053C241.106 193.122 248.518 192.985 255.911 193.708C256.154 193.774 256.412 193.756 256.643 193.656C256.874 193.557 257.066 193.382 257.186 193.161C257.248 193.01 257.342 192.874 257.461 192.763C257.58 192.652 257.721 192.569 257.875 192.518C258.03 192.466 258.193 192.449 258.354 192.468C258.516 192.486 258.671 192.539 258.81 192.623C260.561 194.177 261.233 192.623 262.147 191.479C262.429 191.137 262.254 190.199 263.032 190.502C263.285 190.592 263.505 190.757 263.663 190.975C263.821 191.193 263.91 191.454 263.917 191.724C263.917 192.564 264.326 192.828 264.978 193.112C266.106 193.591 266.311 194.382 265.095 195.067C264.384 195.448 263.879 195.77 263.84 196.748C263.781 196.964 263.675 197.165 263.528 197.334C263.382 197.503 263.199 197.637 262.993 197.725C262.381 197.97 262.439 197.178 262.196 196.865C261.31 195.663 260.649 193.933 258.82 195.565C258.733 195.638 258.633 195.692 258.525 195.725C258.416 195.758 258.303 195.769 258.19 195.757C258.078 195.746 257.969 195.711 257.87 195.656C257.771 195.601 257.684 195.527 257.614 195.438C256.806 194.138 255.668 194.558 254.618 194.627C249.028 195.052 243.42 195.179 237.818 195.008C236.845 194.373 235.872 194.891 234.841 195.008H233.333Z" fill="#333B43"/>
<path d="M73.0369 160.475C74.6031 160.475 76.1595 160.475 77.716 160.475C78.3288 160.475 78.8833 160.475 78.7958 161.453C78.7082 162.43 79.2238 163.681 78.4456 164.502C78.0175 164.962 77.5701 164.375 77.3463 163.837C77.0859 163.158 76.6847 162.541 76.1693 162.029C75.9598 161.835 75.7011 161.702 75.4214 161.645C75.1418 161.588 74.8519 161.609 74.5836 161.707C73.8832 161.883 74.1945 162.606 74.1848 163.075C74.1848 166.007 74.1848 168.94 74.1848 171.823C74.1848 172.869 74.282 173.778 75.4688 173.856C75.8677 173.856 76.2276 174.081 76.1206 174.619C76.0136 175.156 75.6537 174.98 75.3521 174.98C73.7956 174.98 72.2392 174.98 70.6827 174.98C70.3228 174.98 69.8461 175.088 69.7683 174.56C69.6905 174.032 70.099 173.895 70.4882 173.866C71.6361 173.798 71.675 172.947 71.6652 171.999C71.6652 169.067 71.6652 166.134 71.6652 163.202C71.6652 162.684 72.0543 161.883 71.2761 161.658C70.9417 161.541 70.578 161.54 70.243 161.656C69.9081 161.771 69.6211 161.995 69.4278 162.293C69.0555 162.831 68.73 163.4 68.455 163.994C68.2118 164.531 67.7254 164.815 67.4822 164.453C66.7624 163.574 67.2585 162.41 67.171 161.365C67.0834 160.319 67.706 160.475 68.2994 160.475H73.0369Z" fill="#313B45"/>
<path d="M40.857 171.207C41.8298 168.275 42.8026 165.695 43.6489 163.124C43.9505 162.293 43.6489 161.834 42.8999 161.648C42.4913 161.55 41.9271 161.58 42.0341 160.905C42.1411 160.231 42.7442 160.504 43.1431 160.495C44.2034 160.495 45.254 160.495 46.3144 160.495C46.6257 160.495 46.9856 160.495 47.1023 160.856C47.1327 160.932 47.1453 161.014 47.1392 161.096C47.1331 161.178 47.1085 161.257 47.0672 161.328C47.0258 161.399 46.969 161.459 46.9009 161.505C46.8328 161.55 46.7553 161.579 46.6743 161.589C45.5264 161.922 45.254 163.016 44.8844 164.013C43.6878 167.268 42.5108 170.543 41.3142 173.788C41.1002 174.374 41.071 175.117 40.1761 175.107C39.2811 175.097 39.2908 174.296 39.0963 173.729C38.0165 170.631 36.9951 167.513 35.9153 164.424C35.5067 163.261 35.3316 161.853 33.8724 161.54C33.5708 161.482 33.493 161.218 33.5027 160.934C33.5027 160.455 33.8724 160.485 34.1837 160.485H38.4737C38.7753 160.485 39.1449 160.485 39.2422 160.866C39.2679 160.945 39.2738 161.029 39.2595 161.111C39.2453 161.193 39.2112 161.27 39.1603 161.336C39.1093 161.402 39.0432 161.454 38.9676 161.488C38.892 161.522 38.8092 161.536 38.7266 161.531C37.6176 161.599 37.7538 162.293 38.0457 163.065L40.857 171.207Z" fill="#2E3842"/>
<path d="M248.421 163.447C248.421 163.329 248.421 163.535 248.421 163.73C248.275 164.385 248.868 165.401 247.954 165.685C247.04 165.968 247.108 164.707 246.874 164.17C246.281 162.743 245.59 161.345 244.014 161.355C242.438 161.365 241.339 162.626 240.794 164.287C240.367 165.427 240.172 166.642 240.22 167.859C240.269 169.076 240.56 170.272 241.076 171.374C242.604 174.511 245.405 174.668 247.302 171.784C247.584 171.364 247.662 170.406 248.47 170.895C249.277 171.383 248.606 172.087 248.353 172.566C246.407 176.339 240.862 176.231 238.625 172.4C237.84 170.944 237.445 169.309 237.477 167.654C237.51 165.999 237.969 164.381 238.81 162.958C240.687 160.133 243.314 159.869 246.174 160.583C246.291 160.583 246.427 160.749 246.514 160.72C248.937 159.791 248.256 161.853 248.421 163.447Z" fill="#2D3842"/>
<path d="M88.8154 174.961H84.3406C84.039 174.961 83.6791 174.961 83.5915 174.55C83.5689 174.471 83.5648 174.388 83.5796 174.308C83.5943 174.227 83.6276 174.151 83.6767 174.086C83.7257 174.02 83.7893 173.967 83.8623 173.931C83.9354 173.894 84.0158 173.875 84.0974 173.876C85.1675 173.749 85.0702 172.898 85.0702 172.077C85.0702 169.233 85.0702 166.389 85.0702 163.544C85.0702 162.655 85.0021 161.902 84.0974 161.658C83.7666 161.58 83.504 161.423 83.5429 161.003C83.5818 160.583 83.9028 160.514 84.2238 160.514H88.5236C88.8446 160.514 89.1851 160.514 89.224 160.983C89.2351 161.063 89.229 161.145 89.2063 161.222C89.1836 161.299 89.1447 161.371 89.0922 161.432C89.0397 161.493 88.9748 161.542 88.9019 161.576C88.829 161.61 88.7498 161.628 88.6695 161.628C87.6383 161.785 87.6286 162.606 87.6383 163.456C87.6383 166.095 87.6383 168.744 87.6383 171.383C87.6383 172.253 87.2492 173.524 88.4749 173.749C89.7006 173.973 91.1306 174.208 92.0353 172.771C92.3904 172.206 92.7152 171.622 93.0081 171.022C93.0435 170.929 93.0969 170.844 93.1653 170.773C93.2337 170.701 93.3156 170.644 93.4063 170.605C93.497 170.566 93.5945 170.546 93.6932 170.545C93.7919 170.544 93.8897 170.563 93.9809 170.601C94.4965 170.709 94.37 171.139 94.37 171.579C94.37 175.029 94.37 175.029 91.1209 175.029H88.8154V174.961Z" fill="#303A45"/>
<path d="M38.2304 193.336C39.7598 193.419 41.2926 193.419 42.822 193.336C44.0671 193.229 44.4563 193.698 44.3201 194.939C39.7209 195.045 35.1194 194.902 30.5356 194.509C29.7769 194.46 29.1056 194.363 28.5901 195.174C28.5258 195.305 28.4331 195.42 28.3189 195.51C28.2046 195.6 28.0717 195.664 27.9299 195.696C27.788 195.728 27.6409 195.727 27.4993 195.694C27.3576 195.662 27.2251 195.597 27.1114 195.506C25.2728 193.806 24.6308 195.585 23.7358 196.757C23.4926 197.08 23.6288 197.813 23.016 197.735C22.7534 197.696 22.5124 197.567 22.3348 197.369C22.1572 197.171 22.054 196.916 22.0432 196.65C22.1697 195.487 21.4303 195.409 20.7786 195.057C19.9322 194.597 19.6501 193.747 20.6424 193.288C21.0584 193.149 21.424 192.889 21.6925 192.541C21.961 192.193 22.1204 191.772 22.1502 191.333C22.1844 191.103 22.2906 190.89 22.4532 190.725C22.6158 190.56 22.8266 190.451 23.0549 190.414C23.5413 190.336 23.4926 190.942 23.6775 191.245C24.5433 192.603 25.2339 194.372 27.1503 192.623C27.2576 192.558 27.3803 192.524 27.5054 192.524C27.6305 192.524 27.7532 192.558 27.8605 192.623C30.1076 194.793 32.7244 193.043 35.0883 193.385C36.1355 193.441 37.1854 193.425 38.2304 193.336V193.336Z" fill="#2F3640"/>
<path d="M227.817 167.542C227.817 166.389 227.817 165.235 227.817 164.082C227.817 162.929 227.934 161.697 226.378 161.58C226.296 161.575 226.217 161.551 226.145 161.511C226.074 161.47 226.013 161.413 225.967 161.345C225.921 161.278 225.891 161.2 225.88 161.118C225.868 161.037 225.876 160.954 225.901 160.876C225.979 160.426 226.349 160.485 226.64 160.485H231.504C231.816 160.485 232.166 160.485 232.205 160.944C232.213 161.025 232.204 161.107 232.178 161.184C232.153 161.261 232.111 161.332 232.055 161.391C232 161.45 231.932 161.497 231.857 161.528C231.783 161.559 231.702 161.573 231.621 161.57C230.386 161.629 230.327 162.547 230.337 163.525C230.337 166.232 230.337 168.95 230.337 171.657C230.337 172.732 230.337 173.739 231.67 173.817C231.752 173.819 231.833 173.84 231.906 173.877C231.98 173.915 232.044 173.968 232.094 174.034C232.144 174.099 232.18 174.175 232.197 174.256C232.214 174.337 232.214 174.421 232.195 174.501C232.137 174.931 231.767 174.912 231.465 174.912C229.909 174.912 228.352 174.912 226.796 174.912C226.456 174.912 225.969 175.039 225.901 174.482C225.833 173.925 226.261 173.827 226.64 173.827C227.691 173.827 227.827 173.094 227.817 172.185C227.808 170.66 227.817 169.096 227.817 167.542Z" fill="#303A45"/>
<path d="M118.457 6.28486C120.22 4.85927 122.415 4.08203 124.678 4.08203C126.941 4.08203 129.136 4.85927 130.899 6.28486C133.051 8.11227 135.657 9.31831 138.438 9.7743C134.06 10.7517 130.373 10.4292 127.007 8.18108C124.361 6.43147 121.599 5.43449 118.457 6.28486Z" fill="#2D3941"/>
<path d="M159.732 12.775C156.468 12.1548 153.578 10.2694 151.687 7.52613C149.547 4.3397 147.698 1.02619 143.836 -0.000113066C148.895 -0.0587591 153.049 1.48559 155.296 6.84193C156.244 9.16909 157.771 11.2122 159.732 12.775V12.775Z" fill="#2D3A44"/>
<path d="M111.209 22.8132C108.524 26.1267 105.275 28.2771 101.229 28.5605C99.7237 28.618 98.2514 29.0173 96.9221 29.7283C95.5928 30.4393 94.441 31.4436 93.5532 32.6658C94.2828 28.541 98.8841 24.4944 103.067 24.4162C105.878 24.3674 108.641 24.2598 111.209 22.8132Z" fill="#2D3A45"/>
<path d="M186.036 39.8206C184.148 36.717 183.379 33.0557 183.857 29.45C184.47 25.7749 185.161 22.1779 183.079 18.6982C184.922 20.1972 186.276 22.2151 186.97 24.493C187.663 26.7709 187.663 29.2051 186.97 31.4831C186.144 34.1793 185.827 37.0072 186.036 39.8206V39.8206Z" fill="#2D3944"/>
<path d="M182.446 32.6267C179.8 28.9418 178.351 24.9929 178.905 20.3403C179.256 17.3298 178.147 14.7201 176.298 12.1201C178.389 13.3528 180.067 15.1813 181.122 17.3738C182.177 19.5664 182.56 22.0243 182.223 24.4358C181.994 25.8343 181.897 27.2513 181.931 28.6681C182.026 29.9965 182.198 31.3183 182.446 32.6267V32.6267Z" fill="#2C3B44"/>
<path d="M145.13 9.4517C143.236 9.70838 141.308 9.53424 139.49 8.94212C137.671 8.34999 136.009 7.35502 134.624 6.03068C132.299 3.80213 129.673 2.56078 126.355 2.93221C130.062 0.517945 135.694 1.44651 138.272 4.21265C140.296 6.363 142.309 8.49381 145.13 9.4517Z" fill="#2F3941"/>
<path d="M172.281 20.5261C169.118 18.5413 166.865 15.3784 166.016 11.7292C165.238 8.19088 163.818 5.2879 160.802 3.30371C165.228 3.83153 169.207 7.9172 169.869 12.6675C170.177 15.4155 170.996 18.081 172.281 20.5261V20.5261Z" fill="#2C3940"/>
<path d="M103.3 88.9465C105.849 92.436 107.464 96.2675 106.987 100.842C106.609 103.818 107.405 106.825 109.205 109.219C107.678 108.828 105.674 106.716 104.633 104.331C103.565 102.148 103.224 99.6772 103.66 97.284C104.238 94.5185 104.114 91.6514 103.3 88.9465Z" fill="#2E3842"/>
<path d="M196.221 43.0071C198.167 46.3401 197.749 52.3123 195.501 55.2641C194.529 56.5641 193.342 57.7175 192.33 58.9881C191.318 60.2588 190.91 61.9204 189.966 63.8753C189.966 59.2423 190.628 55.3619 193.108 52.2145C195.19 49.6341 196.591 46.8582 196.221 43.0071Z" fill="#2D3840"/>
<path d="M177.826 26.2147C174.944 23.6659 173.141 20.1059 172.787 16.2644C172.534 12.7359 171.649 9.66674 169.022 7.21338C172.806 8.0833 176.444 13.078 176.435 17.2516C176.299 20.3026 176.772 23.3502 177.826 26.2147V26.2147Z" fill="#2D3A44"/>
<path d="M104.03 17.1931C107.571 13.0683 111.686 11.1037 116.871 13.2833C118.878 14.0528 121.038 14.3341 123.175 14.1044C121.483 15.4095 119.461 16.212 117.338 16.4209C116.052 16.7031 114.718 16.6729 113.447 16.3329C110.207 15.3164 107.085 15.2675 104.03 17.1931Z" fill="#2D3943"/>
<path d="M95.7905 58.5386C95.7905 63.0152 95.0123 67.14 92.1133 70.5219C91.1505 71.6766 90.4335 73.0175 90.0069 74.4616C89.5802 75.9058 89.4529 77.4225 89.6327 78.9181C87.5996 75.1941 88.0763 69.2904 90.7514 66.2114C92.7651 63.8851 94.7301 61.5784 95.7905 58.5386Z" fill="#2D3840"/>
<path d="M187.34 78.8886C188.313 74.7443 190.258 71.4503 193.585 69.2609C194.899 68.4811 196.031 67.4263 196.904 66.1682C197.777 64.9101 198.37 63.478 198.644 61.9692C199.548 65.879 197.593 71.3233 194.47 73.2879C191.922 74.9007 189.237 76.2398 187.34 78.8886Z" fill="#2E3843"/>
<path d="M188.556 47.2295C186.969 43.4995 186.875 39.2982 188.293 35.5003C188.968 33.9991 189.338 32.3774 189.379 30.7306C189.421 29.0839 189.135 27.4453 188.536 25.9116C190.096 27.5816 191.154 29.6609 191.588 31.9093C192.022 34.1577 191.814 36.4836 190.988 38.6183C189.781 41.3942 188.604 44.0919 188.556 47.2295Z" fill="#2E3A43"/>
<path d="M174.635 99.1117C177.203 96.111 180.141 93.8531 183.993 93.511C187.048 93.2471 189.83 92.4065 192.029 89.6697C191.474 93.3742 186.844 97.538 183.108 97.4892C180.17 97.4989 177.33 97.6846 174.635 99.1117Z" fill="#2D3A44"/>
<path d="M166.483 16.2938C163.216 15.0289 160.57 12.5316 159.109 9.33442C157.572 5.84498 156.094 2.49238 152.543 0.908936C157.543 1.65179 161.454 3.84124 162.893 9.53968C163.561 12.0369 164.789 14.3474 166.483 16.2938V16.2938Z" fill="#2D3843"/>
<path d="M130.276 11.3675C126.521 12.8434 122.786 13.1366 119.06 11.3675C117.78 10.721 116.368 10.3844 114.935 10.3844C113.503 10.3844 112.09 10.721 110.811 11.3675C113.116 8.15171 118.797 6.71488 122.348 8.62088C124.791 10.0377 127.483 10.9701 130.276 11.3675V11.3675Z" fill="#2D3842"/>
<path d="M101.89 35.4124C100.431 39.1755 98.1935 42.2544 94.7596 43.7987C91.705 45.216 89.2438 47.122 87.8819 50.7679C87.7652 46.1544 90.5668 41.2476 94.2829 39.8108C97.0359 38.7552 99.7208 37.68 101.89 35.4124Z" fill="#2E3943"/>
<path d="M134.877 0.859299C138.622 -0.860986 144.08 0.70291 146.434 4.07506C148.078 6.44045 149.693 8.78629 152.125 10.3502C150.407 10.293 148.722 9.87048 147.179 9.11061C145.636 8.35073 144.272 7.27076 143.175 5.94196C140.976 3.23447 138.671 0.976591 134.877 0.859299Z" fill="#2C3842"/>
<path d="M97.3278 96.0914C95.6231 94.2114 94.5322 91.852 94.2018 89.3305C93.8713 86.809 94.3172 84.2463 95.4795 81.987C96.5954 79.6909 97.2091 77.1813 97.2791 74.627C98.8931 78.2689 99.0292 82.3999 97.6585 86.1411C96.4036 89.484 95.8881 92.6997 97.3278 96.0914Z" fill="#2E3842"/>
<path d="M141.94 121.925C136.998 121.925 132.786 120.42 130.578 115.005C129.635 112.693 128.073 110.69 126.064 109.219C128.982 109.463 133.292 112.366 134.897 115.415C136.502 118.465 138.71 120.84 141.94 121.925Z" fill="#2E3943"/>
<path d="M98.748 23.947C99.5871 22.0796 100.976 20.5158 102.728 19.467C104.48 18.4183 106.51 17.935 108.544 18.0824C109.974 18.2388 111.394 18.4734 112.815 18.5614C114.246 18.5436 115.668 18.3197 117.036 17.8967C115.701 19.2505 114.092 20.3001 112.318 20.9747C110.544 21.6492 108.647 21.9329 106.754 21.8065C103.875 21.611 101.17 21.9726 98.748 23.947Z" fill="#2B3A44"/>
<path d="M105.548 29.1567C103.806 32.4409 101.355 34.8454 98.0378 35.7251C94.7206 36.6048 91.9871 38.0025 90.0415 41.492C90.7225 36.468 94.5066 32.2845 98.5826 31.6199C99.8155 31.4344 101.03 31.14 102.211 30.7402C103.351 30.2722 104.464 29.7437 105.548 29.1567V29.1567Z" fill="#2C3943"/>
<path d="M189.285 71.2842C189.396 67.3223 191.04 63.5599 193.867 60.7963C195.129 59.7207 196.164 58.4021 196.911 56.9181C197.658 55.434 198.101 53.8148 198.215 52.1558C199.684 57.2189 198.099 62.5361 194.402 65.3902C192.268 66.9338 190.517 68.9506 189.285 71.2842V71.2842Z" fill="#2E3841"/>
<path d="M155.491 110.558C157.356 109.738 159.374 109.334 161.409 109.371C163.444 109.408 165.447 109.886 167.281 110.773C169.839 112.024 172.466 111.75 175.287 110.587C171.96 114.076 166.999 115.23 163.409 113.275C160.988 111.822 158.29 110.896 155.491 110.558V110.558Z" fill="#2C3945"/>
<path d="M197.962 71.509C197.914 76.5526 194.937 81.0195 190.598 82.4856C188.145 83.2902 185.898 84.6247 184.013 86.3954C185.559 82.6616 187.787 79.5533 191.328 78.0187C192.821 77.4528 194.182 76.5822 195.324 75.4618C196.465 74.3414 197.364 72.9956 197.962 71.509V71.509Z" fill="#2D3940"/>
<path d="M159.537 119.081C154.498 121.378 150.247 120.537 146.891 116.862C145.235 114.983 143.207 113.472 140.938 112.424C142.652 112.211 144.391 112.361 146.043 112.866C147.696 113.372 149.224 114.22 150.529 115.357C153.039 117.546 155.646 119.384 159.537 119.081Z" fill="#2F3942"/>
<path d="M98.5727 43.1047C97.6681 47.0145 95.8684 50.2302 92.736 52.3513C90.0608 54.1595 87.8721 56.3197 87.1911 60.1707C86.3642 55.2836 88.5822 50.1227 92.2788 48.0994C94.6877 46.8736 96.8278 45.1753 98.5727 43.1047Z" fill="#2E3944"/>
<path d="M87.5508 69.5247C86.578 63.9142 87.6092 59.1444 92.2494 55.8993C94.0644 54.4414 95.5668 52.6293 96.6659 50.5723C96.3254 54.5993 95.0899 58.2354 92.2397 60.8842C89.6349 63.0562 87.957 66.1482 87.5508 69.5247Z" fill="#2E3840"/>
<path d="M168.915 104.009C171.882 101.311 175.248 99.796 179.149 100.099C182.155 100.314 184.986 100.021 187.418 97.4502C186.62 100.871 181.007 104.615 177.417 103.852C174.586 103.246 171.756 102.943 168.915 104.009Z" fill="#2C3943"/>
<path d="M189.898 55.0782C189.247 51.0121 189.305 47.0535 191.435 43.4859C192.305 42.1144 192.891 40.5816 193.16 38.9782C193.429 37.3748 193.375 35.7334 193.001 34.1514C195.288 36.6829 196.105 43.2024 193.848 46.731C192.194 49.3309 190.511 51.8723 189.898 55.0782Z" fill="#2F393F"/>
<path d="M148.049 112.102C150.126 111.573 152.295 111.516 154.396 111.935C156.498 112.354 158.481 113.239 160.199 114.526C161.312 115.294 162.597 115.775 163.939 115.925C165.281 116.075 166.64 115.89 167.894 115.386C163.711 118.563 158.584 118.543 155.024 115.65C153.017 113.921 150.624 112.704 148.049 112.102V112.102Z" fill="#2C3841"/>
<path d="M103.028 103.52C99.244 100.373 97.4832 95.1336 98.7187 90.9698C99.7063 88.1499 100.084 85.151 99.8277 82.1729C101.877 85.4396 102.618 89.3656 101.9 93.1592C101.17 96.6682 101.005 99.9524 103.028 103.52Z" fill="#2D3944"/>
<path d="M162.738 107.742C165.588 105.915 168.643 104.869 171.882 105.553C175.345 106.286 178.692 106.902 181.931 104.664C178.419 108.749 174.402 110.724 169.285 108.681C167.198 107.886 164.962 107.566 162.738 107.742V107.742Z" fill="#2E3842"/>
<path d="M180.122 92.778C182.145 89.5427 184.616 86.9818 188.167 86.1119C189.736 85.8104 191.225 85.1836 192.54 84.2715C193.855 83.3593 194.966 82.1819 195.803 80.8142C194.83 85.0172 192.826 88.4577 188.867 89.8164C185.978 90.8231 182.826 90.9013 180.122 92.778Z" fill="#2D3942"/>
<path d="M133.087 120.918C128.311 120.205 124.517 117.986 123.048 112.522C122.398 110.082 121.259 107.8 119.702 105.817C121.448 106.548 123.027 107.632 124.34 109C125.654 110.369 126.674 111.993 127.338 113.773C128.3 116.792 130.351 119.34 133.087 120.918V120.918Z" fill="#2E3941"/>
<path d="M108.038 95.6907C109.603 97.1345 110.866 98.8774 111.753 100.818C112.64 102.758 113.133 104.856 113.204 106.99C113.341 109.72 114.465 112.306 116.365 114.262C112.912 113.558 109.556 108.788 109.439 104.791C109.497 103.233 109.429 101.674 109.235 100.128C108.942 98.6221 108.542 97.1391 108.038 95.6907V95.6907Z" fill="#2E3942"/>
<path d="M150.413 121.329C145.481 122.16 141.229 121.163 138.379 116.266C137.066 114.259 135.329 112.567 133.292 111.31C137.329 111.887 140.899 113.402 143.516 116.969C145.172 119.258 147.642 120.819 150.413 121.329V121.329Z" fill="#2E3941"/>
<path d="M92.6097 87.2652C91.3482 85.2925 90.6888 82.9919 90.713 80.6471C90.7372 78.3023 91.4439 76.0159 92.7459 74.0699C94.1342 72.0299 95.2189 69.7974 95.9658 67.4429C96.531 69.8691 96.511 72.3959 95.9075 74.8127C95.6764 75.8434 95.2893 76.8324 94.7596 77.745C92.9024 80.5449 92.1371 83.9342 92.6097 87.2652Z" fill="#2E3841"/>
<path d="M124.887 118.465C120.684 117.732 116.852 114.008 116.219 110.255C115.684 107.156 115.246 104.067 113.573 101.331C116.573 103.196 118.754 106.138 119.673 109.561C120.529 113.001 121.599 116.207 124.887 118.465Z" fill="#2C3A42"/>
<path d="M126.609 142.705V143.869C126.346 143.624 126.21 143.566 125.898 143.947C124.332 145.902 123.35 145.677 122.163 143.302C122.027 143.214 121.978 143.126 122.027 143.028C122.075 142.93 122.114 142.881 122.153 142.881C122.406 141.728 122.97 140.927 124.099 140.927C125.227 140.927 125.714 141.474 125.966 142.52C126.112 142.774 126.346 142.784 126.609 142.705Z" fill="#313B43"/>
<path d="M159.285 143.468V142.637C159.342 142.663 159.405 142.676 159.468 142.674C159.531 142.673 159.593 142.657 159.65 142.628C159.706 142.598 159.755 142.557 159.793 142.506C159.83 142.455 159.856 142.396 159.868 142.334C159.908 142.098 159.994 141.872 160.122 141.669C160.25 141.466 160.416 141.291 160.612 141.154C160.807 141.017 161.028 140.92 161.261 140.869C161.494 140.818 161.735 140.814 161.97 140.858C163.01 140.995 163.516 141.787 163.73 142.813C163.857 142.911 163.905 143.008 163.857 143.096C163.808 143.184 163.769 143.243 163.73 143.243C162.485 145.589 161.337 145.716 159.907 143.663C159.849 143.555 159.752 143.475 159.636 143.438C159.519 143.402 159.393 143.412 159.285 143.468V143.468Z" fill="#303841"/>
<path d="M157.037 194.353V193.698C158.915 191.626 159.625 191.636 160.782 193.757C160.83 193.794 160.866 193.844 160.887 193.901C160.908 193.958 160.912 194.02 160.899 194.079C160.899 194.197 160.831 194.255 160.802 194.255C159.751 196.464 158.924 196.464 157.037 194.353Z" fill="#3A434A"/>
<path d="M128.865 193.639V194.314C127.046 196.474 126.151 196.464 125.11 194.245C125.063 194.208 125.028 194.157 125.011 194.1C124.994 194.042 124.994 193.98 125.013 193.923C125.013 193.815 125.091 193.766 125.12 193.766C126.161 191.645 126.842 191.577 128.865 193.639Z" fill="#374045"/>
<path d="M141.92 191.049C141.342 190.673 140.733 190.346 140.101 190.072C139.925 189.985 139.734 189.936 139.538 189.927C139.342 189.918 139.147 189.95 138.964 190.021C138.782 190.092 138.616 190.2 138.476 190.338C138.337 190.476 138.228 190.642 138.155 190.825C138.02 191.06 137.975 191.337 138.029 191.603C138.082 191.87 138.231 192.107 138.447 192.271C139.332 193.024 139.731 192.017 140.393 191.489C140.484 191.682 140.537 191.891 140.547 192.105C140.558 192.318 140.526 192.532 140.453 192.733C140.381 192.934 140.27 193.118 140.126 193.276C139.982 193.433 139.808 193.56 139.614 193.649C139.275 193.835 138.878 193.887 138.502 193.795C138.126 193.702 137.798 193.473 137.581 193.151C137.285 192.784 137.109 192.334 137.08 191.863C137.05 191.391 137.168 190.923 137.416 190.522C138.389 188.762 140.023 188.86 142.144 190.785L141.92 191.049Z" fill="#363B3E"/>
<path d="M160.783 194.255V193.757L167.145 193.855C167.125 193.951 167.125 194.051 167.145 194.148L160.783 194.255Z" fill="#959696"/>
<path d="M122.163 142.842V143.263L115.762 143.194C115.762 143.096 115.762 142.999 115.762 142.901L122.163 142.842Z" fill="#8B8C8C"/>
<path d="M163.73 143.272V142.842L170.111 142.891C170.097 142.995 170.097 143.1 170.111 143.204L163.73 143.272Z" fill="#989A9B"/>
<path d="M125.13 193.767V194.246L119.147 194.148C119.167 194.051 119.167 193.951 119.147 193.855L125.13 193.767Z" fill="#9A9A9A"/>
<path d="M259.579 214.645C259.861 215.104 260.318 214.918 260.707 215.016C260.282 215.318 259.765 215.461 259.247 215.42C258.728 215.379 258.239 215.156 257.867 214.791C258.4 214.533 259.01 214.481 259.579 214.645Z" fill="#787977"/>
<path d="M234.841 194.998C235.814 194.734 236.786 193.464 237.818 194.998C236.836 195.203 235.823 195.203 234.841 194.998Z" fill="#303542"/>
<path d="M114.478 206.6C116.91 205.173 119.478 204.206 121.647 202.466C118.729 203.512 115.81 204.704 112.892 205.848C112.097 206.198 111.216 206.3 110.363 206.141C103.067 204.733 96.0336 202.124 88.7766 200.511C82.2005 199.045 75.5564 197.96 69.029 200.286C66.5412 201.152 63.8286 201.103 61.3731 200.149C53.1239 197.51 44.7287 195.985 36.0806 197.54C31.5669 198.351 27.1893 199.739 23.8429 203.453C22.7984 204.504 22.0582 205.82 21.7018 207.262C21.3453 208.703 21.386 210.214 21.8195 211.634C22.6658 214.508 25.7107 216.081 27.6563 214.713C23.6484 214.439 22.0043 211.165 23.9207 207.304C24.6438 205.908 25.7694 204.763 27.1504 204.02C30.912 201.978 35.1037 200.865 39.3784 200.775C46.8007 200.364 53.9702 202.065 61.3634 204.274C60.7214 204.9 60.2836 205.251 59.9042 205.711C56.3146 209.757 54.0675 214.371 55.1375 220.196C55.507 222.655 56.8096 224.874 58.7719 226.388C60.7343 227.902 63.204 228.594 65.6631 228.319C68.2414 228.021 70.607 226.739 72.2709 224.738C73.9349 222.736 74.7698 220.169 74.6031 217.567C74.6069 216.326 74.275 215.108 73.6427 214.042C73.0104 212.976 72.1015 212.104 71.0135 211.517C70.0799 210.989 69.0022 210.776 67.9391 210.91C66.876 211.043 65.8838 211.517 65.1086 212.26C70.0601 211.009 73.5524 214.087 72.638 218.721C72.4362 219.855 71.9812 220.929 71.3073 221.862C70.6334 222.795 69.758 223.562 68.7469 224.106C67.6098 224.79 66.3 225.128 64.9759 225.079C63.6518 225.03 62.37 224.597 61.2856 223.832C59.0871 222.386 58.445 220.06 58.5423 217.362C58.698 213.218 62.4335 207.373 65.809 205.994C66.4105 205.822 67.0546 205.889 67.6087 206.18C70.3617 207.021 73.0952 207.93 75.8482 208.751C86.9283 212.035 98.0181 213.022 109.098 208.751C109.694 208.59 110.321 208.59 110.917 208.751C117.231 209.552 123.486 209.494 129.585 207.265C133.152 206.051 136.386 204.016 139.031 201.322C128.33 206.972 121.676 208.448 114.478 206.6ZM71.8306 203.619C73.5652 203.076 75.3738 202.809 77.1907 202.827C83.0858 202.681 88.8058 204.039 94.5355 205.33C98.0473 206.121 101.549 206.982 105.518 207.92C93.6697 210.725 82.9204 207.597 71.8306 203.619Z" fill="#2B3943"/>
<path d="M264.21 207.939C263.814 205.697 262.621 203.675 260.853 202.251C256.651 198.879 251.768 197.569 246.699 197.1C238.187 196.318 229.987 198.263 221.903 200.941C221.525 201.152 221.107 201.281 220.677 201.32C220.246 201.358 219.812 201.306 219.403 201.166C213.44 198.419 207.243 198.673 201.027 199.719C194.811 200.765 188.799 202.779 182.7 204.411C174.1 206.718 174.1 206.669 165.909 202.974C165.248 202.671 164.625 202.055 163.711 202.515L171.688 206.757C162.534 208.037 154.333 206.757 146.901 201.224C147.465 201.941 148.119 202.582 148.846 203.13C155.588 208.291 163.205 209.65 171.221 209.044C174.139 208.829 176.941 208.682 179.83 209.669C185.364 211.504 191.232 212.098 197.019 211.409C204.383 210.627 211.416 208.379 218.469 206.17C218.805 206.011 219.176 205.94 219.547 205.964C219.918 205.988 220.276 206.106 220.59 206.307C223.872 208.441 226.224 211.751 227.166 215.563C228.051 219.219 226.786 222.767 224.179 224.184C223.23 224.683 222.186 224.972 221.117 225.033C220.048 225.093 218.978 224.924 217.979 224.537C216.98 224.149 216.075 223.552 215.324 222.785C214.573 222.018 213.994 221.099 213.624 220.089C213.153 219.04 212.985 217.879 213.138 216.739C213.291 215.598 213.76 214.524 214.49 213.638C215.038 212.806 215.858 212.193 216.808 211.903C217.759 211.614 218.779 211.668 219.695 212.054C219.87 212.123 220.142 212.269 220.239 211.888C216.669 209.2 211.659 212.152 211.261 217.44C211.059 219.976 211.821 222.495 213.393 224.49C214.965 226.484 217.231 227.807 219.734 228.192C222.166 228.615 224.667 228.067 226.704 226.665C228.741 225.263 230.153 223.117 230.639 220.685C231.331 217.351 230.907 213.88 229.432 210.813C228.216 208.33 226.543 206.101 224.5 204.245C233.255 201.674 241.835 199.67 250.697 201.234C254.258 201.86 257.809 202.769 260.639 205.486C263.47 208.203 263.752 213.305 259.569 214.625C259.705 215.602 260.27 215.065 260.698 214.996C263.626 213.726 264.881 211.253 264.21 207.939ZM180.939 207.89C191.756 205.691 202.34 201.459 213.595 203.551C202.982 207.656 192.262 210.647 180.939 207.89Z" fill="#2B3943"/>
<path d="M133.437 132.775L131.161 131.895C129.75 131.406 128.35 130.869 126.92 130.429C118.719 127.966 110.46 126.099 101.88 127.389C100.538 127.594 99.127 128.367 97.8915 128.093C93.4264 127.115 89.7006 128.885 86.043 131.191C83.8243 132.769 81.4553 134.121 78.9708 135.228C78.0661 135.57 77.4532 135.854 76.9279 134.573C76.8421 134.342 76.7008 134.137 76.5168 133.974C76.3327 133.811 76.1114 133.697 75.8727 133.641C75.634 133.585 75.3852 133.589 75.1484 133.652C74.9116 133.716 74.6942 133.838 74.5154 134.006C73.6399 134.622 73.708 135.59 74.2333 136.518C74.4084 136.831 74.8656 136.958 74.7781 137.408C73.6302 138.268 72.278 137.74 70.8091 138.102C71.0473 138.216 71.2946 138.311 71.5484 138.385C75.5758 138.776 79.214 137.232 82.7938 135.57C84.9632 134.593 86.9768 133.175 89.0781 132.022C91.4419 130.712 93.407 130.253 94.9732 130.517C92.6968 134.348 92.726 137.857 95.0413 140.076C95.8629 140.979 97.0071 141.518 98.2232 141.574C99.4394 141.631 100.628 141.201 101.53 140.379C102.563 139.525 103.254 138.324 103.475 136.997C103.981 134.114 102.96 131.758 100.927 129.608C106.797 128.547 112.809 128.547 118.68 129.608C123.67 130.37 128.505 131.866 133.389 133.107C133.389 133.107 133.486 133.009 133.496 132.951C133.505 132.892 133.466 132.785 133.437 132.775ZM101.248 135.707C101.248 137.574 99.9636 139.128 98.4655 139.138C96.7728 139.138 95.2942 137.32 95.3526 135.287C95.3526 133.576 96.9771 131.084 98.0569 131.015C99.4383 130.918 101.267 133.615 101.248 135.697V135.707Z" fill="#2B3944"/>
<path d="M211.037 137.388C211.212 137.124 211.377 136.851 211.572 136.587C211.75 136.41 211.887 136.196 211.973 135.959C212.058 135.722 212.089 135.469 212.064 135.219C212.038 134.968 211.958 134.726 211.827 134.511C211.696 134.297 211.519 134.114 211.309 133.977C211.124 133.817 210.903 133.704 210.665 133.65C210.426 133.595 210.179 133.6 209.943 133.663C209.707 133.727 209.49 133.847 209.311 134.015C209.132 134.182 208.996 134.39 208.916 134.622C208.43 135.775 207.865 135.6 207.029 135.287C204.528 134.208 202.15 132.861 199.937 131.269C196.231 128.865 192.437 126.969 187.943 128.181C187.572 128.24 187.192 128.196 186.843 128.054C184.026 127.217 181.092 126.85 178.156 126.969C172.641 126.969 167.29 128.22 161.93 129.481C159.548 129.783 157.241 130.518 155.121 131.651C154.653 131.619 154.187 131.736 153.789 131.986C153.391 132.235 153.081 132.603 152.903 133.039C160.111 130.976 167.358 129.129 174.859 128.826C178.211 128.628 181.574 128.904 184.849 129.647C181.872 133.879 181.59 137.398 183.876 139.949C184.677 140.865 185.798 141.436 187.007 141.542C188.216 141.647 189.419 141.28 190.365 140.516C193.06 138.463 193.283 135.384 190.919 130.282C192.68 130.303 194.409 130.752 195.958 131.592C200.472 133.948 204.714 136.978 209.782 137.955C211.506 138.463 213.329 138.527 215.084 138.141C213.615 137.721 212.233 138.258 211.037 137.388ZM187.408 139.138C185.929 139.138 184.674 137.535 184.645 135.707C184.645 133.645 186.386 130.986 187.777 130.976C188.886 130.976 190.559 133.606 190.569 135.355C190.569 137.339 189.042 139.167 187.408 139.138Z" fill="#2C3944"/>
<path d="M198.186 160.299C194.295 160.299 191.766 163.339 191.795 167.825C191.824 172.312 194.383 175.234 198.303 175.215C202.223 175.195 204.762 172.283 204.792 167.806C204.821 163.329 202.223 160.231 198.186 160.299ZM200.998 172.273C199.558 174.697 196.863 174.707 195.57 172.195C194.891 170.873 194.526 169.412 194.5 167.926C194.475 166.439 194.791 164.967 195.424 163.622C195.619 162.996 196.006 162.448 196.53 162.056C197.055 161.665 197.689 161.45 198.342 161.443C198.993 161.484 199.617 161.717 200.137 162.114C200.656 162.51 201.047 163.052 201.26 163.671C201.769 164.911 202.03 166.24 202.029 167.581C202.123 169.195 201.766 170.803 200.998 172.224V172.273Z" fill="#2E3943"/>
<path d="M220.687 163.407C220.366 161.374 218.926 160.68 217.302 160.563C215.191 160.407 213.06 160.495 210.949 160.495C210.658 160.495 210.268 160.416 210.191 160.866C210.113 161.316 210.463 161.55 210.862 161.589C211.718 161.677 212.019 162.195 212.01 163.095C212.01 166.213 212.01 169.331 212.01 172.458C212.05 172.688 212.027 172.924 211.943 173.141C211.859 173.359 211.717 173.548 211.533 173.69C211.154 173.925 210.307 173.739 210.512 174.521C210.716 175.303 211.484 174.863 211.981 174.931C212.479 174.961 212.98 174.961 213.479 174.931C214.043 174.931 214.597 174.931 215.162 174.931C215.57 174.931 216.134 175.146 216.29 174.54C216.446 173.934 215.794 173.905 215.405 173.817C215.287 173.807 215.172 173.774 215.068 173.72C214.963 173.665 214.87 173.59 214.794 173.499C214.718 173.408 214.66 173.303 214.625 173.19C214.59 173.077 214.577 172.958 214.588 172.84C214.433 171.567 214.476 170.278 214.714 169.018C215.025 168.04 216.3 168.842 217.097 168.539C217.448 168.402 217.827 168.353 218.167 168.207C219.093 167.846 219.857 167.162 220.32 166.28C220.783 165.398 220.914 164.378 220.687 163.407V163.407ZM215.269 167.513C213.683 167.083 214.948 165.46 214.422 164.434C215.113 163.632 213.449 161.853 215.453 161.628C216.951 161.462 218.031 162.821 217.992 164.629C217.953 166.281 216.63 167.874 215.269 167.513V167.513Z" fill="#2F3944"/>
<path d="M146.804 173.856C145.617 173.573 145.393 172.449 145.033 171.452C143.876 168.167 142.728 164.874 141.541 161.599C141.337 161.022 141.288 160.24 140.374 160.319C139.459 160.397 139.566 161.062 139.401 161.58C138.188 164.916 136.988 168.259 135.802 171.608C135.461 172.585 135.101 173.504 134.06 173.797C133.739 173.895 133.447 173.993 133.477 174.433C133.477 175.049 133.953 174.931 134.294 174.931C135.481 174.931 136.667 174.931 137.854 174.931C138.146 174.931 138.525 175.009 138.632 174.589C138.739 174.169 138.418 173.856 138.01 173.817C136.794 173.7 136.852 172.967 137.134 171.97C137.611 170.337 140.743 169.184 141.998 170.24C142.679 170.836 143.098 173.446 142.543 173.749C142.183 173.944 141.522 173.817 141.668 174.501C141.813 175.185 142.494 174.873 142.942 174.922C143.438 174.951 143.935 174.951 144.43 174.922H146.677C146.93 174.922 147.203 174.922 147.28 174.579C147.306 174.5 147.313 174.416 147.301 174.334C147.29 174.251 147.26 174.173 147.214 174.103C147.169 174.034 147.108 173.976 147.037 173.933C146.966 173.89 146.886 173.864 146.804 173.856V173.856ZM139.78 168.969C138.234 168.969 138.146 168.461 138.72 167.17C139.099 166.34 139.372 165.46 139.839 164.18C140.296 165.421 140.539 166.261 140.899 167.034C141.551 168.412 141.444 168.959 139.78 168.959V168.969Z" fill="#2E3843"/>
<path d="M111.112 173.807C110.139 173.534 109.867 172.576 109.556 171.696C108.34 168.285 107.153 164.854 105.937 161.462C105.742 160.935 105.684 160.289 104.877 160.309C104.069 160.329 104.021 160.993 103.836 161.511C102.604 164.913 101.384 168.317 100.178 171.725C99.857 172.654 99.4777 173.485 98.5341 173.778C98.1449 173.895 97.785 174.042 97.9017 174.56C98.0185 175.078 98.4951 174.931 98.8745 174.941C100.003 174.941 101.122 174.941 102.24 174.941C102.581 174.941 103.067 175.078 103.106 174.482C103.145 173.886 102.737 173.856 102.347 173.798C101.229 173.651 101.375 172.937 101.589 172.038C102.036 170.367 105.081 169.174 106.394 170.201C107.036 170.709 107.542 173.436 107.036 173.749C106.696 173.964 106.063 173.749 106.063 174.462C106.063 175.176 106.861 174.873 107.289 174.931C107.788 174.961 108.288 174.961 108.787 174.931C109.468 174.931 110.159 174.931 110.84 174.931C111.19 174.931 111.647 175.039 111.696 174.443C111.725 174.032 111.443 173.895 111.112 173.807ZM102.62 168.764L104.274 164.229C104.575 164.991 104.75 165.392 104.906 165.812C106.083 169.096 106.034 169.096 102.62 168.764Z" fill="#2F3842"/>
<path d="M104.612 220.056C104.612 219.052 103.874 218.621 102.952 218.621C99.487 218.621 96.33 221.635 94.9155 224.587C93.6035 224.32 92.804 223.09 92.804 221.819C92.804 218.929 95.4075 218.498 97.7035 218.498C97.7035 218.478 97.724 218.437 97.724 218.416C97.724 218.375 96.5145 218.273 96.4325 218.273C94.3415 218.273 91.8405 219.154 91.8405 221.635C91.8405 223.213 93.378 224.423 94.7925 224.812C94.362 225.776 94.034 226.862 94.034 227.908C94.034 230.101 95.387 231.208 97.519 231.208C99.651 231.208 101.824 229.035 101.824 226.903C101.824 226.042 101.373 225.468 100.492 225.468C99.2 225.468 98.1545 226.104 98.1545 227.498C98.1545 227.969 98.339 228.707 98.7695 228.994C98.79 228.994 98.8105 229.015 98.831 229.015C98.8515 229.015 98.872 228.974 98.872 228.953C98.872 228.912 98.872 228.871 98.8515 228.851C98.749 228.584 98.7285 228.338 98.7285 228.072C98.7285 226.944 99.2 225.673 100.512 225.673C101.25 225.673 101.599 226.186 101.599 226.883C101.599 228.892 99.5075 230.983 97.519 230.983C96.248 230.983 95.838 229.978 95.838 228.871C95.838 227.6 96.3095 226.186 96.863 225.058C98.2775 225.017 99.7125 224.628 101.004 224.054C102.48 223.398 104.612 221.881 104.612 220.056ZM103.792 219.728C103.792 221.389 102.255 223.254 100.779 223.89C99.61 224.382 98.2365 224.771 96.9655 224.833C97.97 222.762 100.492 218.847 103.116 218.847C103.649 218.847 103.792 219.257 103.792 219.728ZM108.977 219.933L107.481 220.036L105.41 224.115C105.308 224.3 104.59 225.14 104.426 225.366C103.606 226.391 102.786 227.477 102.069 228.584C102.028 228.646 101.987 228.728 101.987 228.81C101.987 228.851 102.007 228.892 102.069 228.892C102.13 228.892 102.171 228.83 102.212 228.789C102.479 228.441 102.725 228.072 102.991 227.703C103.606 226.862 104.221 226.042 104.857 225.222C104.262 226.329 102.725 229.158 102.725 230.429C102.725 231.147 103.176 231.311 103.811 231.311C104.877 231.311 105.964 229.65 106.517 228.83C106.558 228.769 106.599 228.707 106.599 228.625C106.599 228.584 106.579 228.543 106.517 228.543C106.271 228.543 105.062 231.024 103.996 231.024C103.832 231.024 103.791 230.88 103.791 230.737C103.791 230.224 104.262 229.24 104.508 228.769L108.977 219.933ZM112.215 228.482C112.215 228.42 112.195 228.379 112.133 228.379C112.072 228.379 112.031 228.441 111.99 228.502C111.723 228.933 111.108 229.794 110.493 229.773C111.067 229.158 111.559 227.805 111.559 226.965C111.559 226.042 111.047 225.55 110.124 225.55C108.3 225.55 106.352 227.313 106.352 229.179C106.352 230.245 107.029 231.311 108.177 231.311C109.12 231.311 109.755 230.757 110.309 230.06C111.088 230.04 111.785 229.363 112.133 228.707C112.174 228.646 112.215 228.564 112.215 228.482ZM111.088 226.78C111.088 228.195 110.001 231.085 108.3 231.085C107.808 231.085 107.705 230.634 107.705 230.245C107.705 229.548 107.992 228.728 108.279 228.113C108.607 227.416 109.468 225.776 110.35 225.776C110.944 225.776 111.088 226.268 111.088 226.78ZM118.355 224.074C118.355 224.013 118.314 223.972 118.191 223.972H116.777L117.925 221.717L116.428 221.84L115.239 224.136C115.239 224.156 113.128 226.821 111.939 228.564C111.898 228.646 111.877 228.707 111.877 228.748C111.877 228.81 111.918 228.851 111.959 228.851C112 228.851 112.062 228.81 112.082 228.769C112.923 227.559 114.686 225.243 114.686 225.243C114.542 225.591 112.902 228.748 112.697 229.138C112.533 229.466 112.431 229.814 112.431 230.122C112.431 230.778 112.82 231.311 113.743 231.311C114.87 231.311 116.039 229.363 116.449 228.769C116.51 228.687 116.531 228.625 116.531 228.584C116.531 228.523 116.49 228.502 116.449 228.502C116.387 228.502 116.346 228.523 116.326 228.564C115.834 229.322 114.706 231.024 113.948 231.024C113.702 231.024 113.62 230.839 113.62 230.573C113.62 230.306 113.702 229.978 113.845 229.712L116.674 224.177H118.15C118.294 224.177 118.355 224.115 118.355 224.074ZM124.79 228.482C124.79 228.42 124.729 228.359 124.667 228.359C124.606 228.359 124.585 228.42 124.544 228.461C124.114 229.138 122.904 231.044 122.043 231.044C121.859 231.044 121.715 230.983 121.715 230.778C121.715 229.917 123.437 228.338 123.437 226.944C123.437 226.206 122.986 225.591 122.228 225.591C121.018 225.591 119.399 227.703 118.784 228.666L123.212 219.892L121.695 220.036L119.665 224.054C119.563 224.279 118.968 224.997 118.784 225.243C117.984 226.309 117.021 227.498 116.283 228.605C116.242 228.666 116.201 228.748 116.201 228.83C116.201 228.871 116.221 228.912 116.262 228.912C116.344 228.912 116.385 228.83 116.426 228.789C117.287 227.621 118.128 226.432 119.009 225.284L116.037 231.147H117.615L117.902 230.532C118.087 230.142 118.353 229.773 118.599 229.404C119.194 228.523 121.039 225.817 122.187 225.817C122.371 225.817 122.535 225.878 122.535 226.083C122.535 226.944 120.567 228.543 120.567 229.937C120.567 230.675 121.059 231.352 121.838 231.352C122.945 231.352 124.155 229.507 124.708 228.666C124.749 228.605 124.79 228.543 124.79 228.482ZM129.186 223.336C129.186 222.967 128.96 222.66 128.571 222.66C128.079 222.66 127.669 223.049 127.669 223.562C127.669 223.951 127.935 224.197 128.325 224.197C128.837 224.197 129.186 223.849 129.186 223.336ZM129.022 228.584C129.022 228.543 128.981 228.523 128.94 228.523C128.858 228.523 128.776 228.605 128.735 228.666C128.591 228.851 128.468 229.076 128.325 229.281C127.935 229.855 127.033 231.065 126.254 231.065C125.947 231.065 125.824 230.839 125.824 230.573C125.824 230.388 125.865 230.224 125.947 230.06L128.284 225.591L126.562 225.735C126.275 226.124 124.409 228.543 124.409 228.748C124.409 228.789 124.45 228.83 124.491 228.83C124.553 228.83 124.614 228.789 124.655 228.728C124.84 228.502 125.004 228.236 125.168 228.01C125.537 227.518 125.906 227.006 126.275 226.514C125.824 227.334 125.393 228.215 125.004 229.076C124.881 229.343 124.819 229.609 124.819 229.896C124.819 230.757 125.373 231.27 126.213 231.27C127.238 231.27 128.448 229.589 128.94 228.769C128.981 228.707 129.022 228.646 129.022 228.584ZM137.303 228.625C137.303 228.584 137.282 228.523 137.241 228.523C137.159 228.523 137.098 228.625 137.057 228.687C136.606 229.384 135.601 230.962 134.679 230.962C134.371 230.962 134.125 230.86 134.125 230.511C134.125 229.343 135.786 228.277 135.786 226.678C135.786 226.042 135.499 225.53 134.822 225.53C134.146 225.53 133.285 226.432 132.895 226.944C132.916 226.862 132.936 226.76 132.936 226.657C132.936 226.042 132.485 225.509 131.829 225.509C130.866 225.509 129.246 227.826 128.754 228.625C128.734 228.666 128.693 228.728 128.693 228.789C128.693 228.83 128.713 228.892 128.775 228.892C128.959 228.892 130.804 225.796 131.747 225.796C131.87 225.796 131.952 225.858 131.952 225.981C131.952 226.165 131.788 226.452 131.706 226.616L129.267 231.147H130.784L132.465 227.887C132.772 227.293 133.982 225.817 134.699 225.817C134.822 225.817 134.945 225.858 134.945 226.001C134.945 226.616 133.121 228.379 133.121 230.163C133.121 231.085 133.777 231.27 134.556 231.27C135.581 231.27 136.708 229.671 137.2 228.871C137.241 228.789 137.303 228.707 137.303 228.625ZM144.442 228.564C144.442 228.523 144.401 228.441 144.34 228.441C144.299 228.441 144.258 228.482 144.237 228.523C143.294 229.835 142.843 230.921 141.101 231.352L144.053 225.55L142.495 225.735L142.228 226.206C142.249 225.694 141.634 225.509 141.224 225.509C139.215 225.509 136.939 227.436 136.939 229.527C136.939 230.306 137.37 231.249 138.272 231.249C139.051 231.249 139.85 230.655 140.281 230.019L139.338 231.823C139.256 231.823 138.661 232.008 138.559 232.049C137.062 232.582 134.602 233.73 134.602 235.636C134.602 236.518 135.217 236.969 136.078 236.969C137.165 236.969 138.702 236.026 139.215 235.083C139.83 233.955 140.404 232.787 140.978 231.639C142.659 231.29 143.479 230.101 144.36 228.769C144.401 228.707 144.442 228.646 144.442 228.564ZM142.023 226.493C142.023 226.514 142.023 226.534 142.023 226.555C141.921 226.944 140.957 228.666 140.711 229.076C140.301 229.753 139.235 231.044 138.354 231.044C138.149 231.044 138.087 230.88 138.087 230.696C138.087 230.081 138.661 228.933 138.969 228.379C139.399 227.6 140.26 225.755 141.306 225.755C141.777 225.755 142.023 226.042 142.023 226.493ZM139.235 232.09L138.825 232.951C138.292 234.058 137.206 236.723 135.935 236.723C135.422 236.723 135.197 236.374 135.197 235.882C135.197 234.242 137.226 232.807 138.579 232.295C138.784 232.213 139.03 232.11 139.235 232.09ZM164.277 218.047C164.175 218.15 164.113 218.273 164.011 218.355C163.457 218.929 162.637 219.052 161.879 219.052C160.321 219.052 158.824 218.519 157.287 218.519C154.478 218.519 151.034 220.589 151.034 223.685C151.034 224.751 151.629 225.468 152.736 225.468C154.786 225.468 156.036 224.156 156.036 222.147C156.036 221.594 155.934 220.999 155.688 220.528C155.688 220.507 155.688 220.487 155.667 220.487C155.647 220.487 155.626 220.589 155.626 220.651C155.626 222.27 154.663 225.243 152.674 225.243C151.731 225.243 151.28 224.566 151.28 223.685C151.28 220.897 154.294 218.867 156.856 218.867C158.783 218.867 159.706 220.22 161.53 220.22C162.863 220.22 163.929 219.318 164.277 218.047ZM161.079 223.828C161.079 223.562 160.956 223.172 160.628 223.172C159.788 223.172 159.357 224.136 159.193 224.833C158.947 224.894 158.701 224.935 158.455 224.976C158.763 223.726 159.132 220.999 160.218 220.2V220.159C157.881 220.999 157.225 223.111 156.323 225.181C155.257 225.366 153.781 225.94 153.043 226.801C153.822 226.104 155.216 225.612 156.221 225.427C155.38 227.436 153.986 231.065 151.362 231.065C151.055 231.065 149.702 230.819 149.702 230.388C149.702 230.306 149.784 230.265 149.845 230.245C150.399 230.019 151.116 229.63 151.116 228.933C151.116 228.461 150.624 228.092 150.173 228.092C149.435 228.092 148.943 228.687 148.943 229.384C148.943 230.716 150.419 231.27 151.547 231.27C152.674 231.27 154.109 230.983 155.093 230.45C157.143 229.363 157.861 227.375 158.394 225.243C158.64 225.222 158.865 225.181 159.111 225.12C159.009 225.571 158.947 226.042 158.947 226.514L160.218 226.165C160.177 225.714 160.136 225.284 160.136 224.833C160.608 224.628 161.079 224.402 161.079 223.828ZM160.833 223.89C160.833 224.238 160.423 224.423 160.136 224.546C160.136 224.32 160.218 223.459 160.567 223.459C160.772 223.459 160.833 223.726 160.833 223.89ZM167.084 228.605C167.084 228.543 167.063 228.502 167.002 228.502C166.899 228.502 166.838 228.625 166.797 228.687C166.346 229.363 165.177 231.106 164.296 231.106C164.173 231.106 164.132 231.024 164.132 230.921C164.132 230.675 164.316 230.306 164.419 230.081L166.694 225.55L165.157 225.735L164.89 226.227C164.931 225.673 164.275 225.53 163.845 225.53C161.672 225.53 159.642 227.395 159.642 229.609C159.642 230.511 160.052 231.249 161.036 231.249C161.836 231.249 162.779 230.286 163.209 229.65C163.168 229.876 163.107 230.101 163.107 230.327C163.107 231.044 163.558 231.331 164.255 231.331C165.259 231.331 166.469 229.609 166.981 228.83C167.022 228.769 167.084 228.687 167.084 228.605ZM164.685 226.432C164.685 226.555 164.665 226.678 164.603 226.78L163.578 228.81C163.496 228.953 163.353 229.117 163.25 229.261C162.84 229.835 161.938 231.044 161.2 231.044H161.139C160.893 231.044 160.749 230.942 160.749 230.675C160.749 230.081 161.569 228.502 161.856 227.949C162.205 227.272 163.045 225.735 163.988 225.735C164.419 225.735 164.685 226.001 164.685 226.432ZM172.449 228.646C172.449 228.605 172.429 228.564 172.388 228.564C172.306 228.564 172.244 228.646 172.203 228.707C172.039 228.953 171.896 229.199 171.711 229.445C171.035 230.327 170.092 231.065 168.923 231.065C168.431 231.065 168.247 230.696 168.247 230.245C168.247 229.015 169.969 225.755 171.322 225.755C171.445 225.755 171.588 225.776 171.67 225.878C171.301 225.796 170.994 226.124 170.994 226.473C170.994 226.801 171.26 227.047 171.588 227.047C171.998 227.047 172.265 226.76 172.265 226.35C172.265 225.632 171.527 225.53 170.973 225.53C169.026 225.53 166.832 227.231 166.832 229.281C166.832 230.552 167.816 231.27 169.005 231.27C170.522 231.27 171.67 230.122 172.367 228.892C172.408 228.83 172.449 228.748 172.449 228.646ZM178.714 224.074C178.714 224.013 178.673 223.972 178.55 223.972H177.136L178.284 221.717L176.787 221.84L175.598 224.136C175.598 224.156 173.487 226.821 172.298 228.564C172.257 228.646 172.236 228.707 172.236 228.748C172.236 228.81 172.277 228.851 172.318 228.851C172.359 228.851 172.421 228.81 172.441 228.769C173.282 227.559 175.045 225.243 175.045 225.243C174.901 225.591 173.261 228.748 173.056 229.138C172.892 229.466 172.79 229.814 172.79 230.122C172.79 230.778 173.179 231.311 174.102 231.311C175.229 231.311 176.398 229.363 176.808 228.769C176.869 228.687 176.89 228.625 176.89 228.584C176.89 228.523 176.849 228.502 176.808 228.502C176.746 228.502 176.705 228.523 176.685 228.564C176.193 229.322 175.065 231.024 174.307 231.024C174.061 231.024 173.979 230.839 173.979 230.573C173.979 230.306 174.061 229.978 174.204 229.712L177.033 224.177H178.509C178.653 224.177 178.714 224.115 178.714 224.074ZM182.464 228.482C182.464 228.42 182.443 228.379 182.382 228.379C182.32 228.379 182.279 228.441 182.238 228.502C181.972 228.933 181.357 229.794 180.742 229.773C181.316 229.158 181.808 227.805 181.808 226.965C181.808 226.042 181.295 225.55 180.373 225.55C178.548 225.55 176.601 227.313 176.601 229.179C176.601 230.245 177.277 231.311 178.425 231.311C179.368 231.311 180.004 230.757 180.557 230.06C181.336 230.04 182.033 229.363 182.382 228.707C182.423 228.646 182.464 228.564 182.464 228.482ZM181.336 226.78C181.336 228.195 180.25 231.085 178.548 231.085C178.056 231.085 177.954 230.634 177.954 230.245C177.954 229.548 178.241 228.728 178.528 228.113C178.856 227.416 179.717 225.776 180.598 225.776C181.193 225.776 181.336 226.268 181.336 226.78ZM187.005 228.42C187.005 228.379 186.985 228.318 186.944 228.318C186.677 228.318 185.365 231.044 184.217 231.044C184.053 231.044 183.951 230.983 183.951 230.819C183.951 230.081 185.775 227.928 185.775 227.17C185.775 226.78 184.73 226.145 184.381 225.96C184.484 225.858 184.586 225.714 184.586 225.55C184.586 225.325 184.402 225.222 184.197 225.222C183.971 225.222 183.807 225.386 183.807 225.612C183.807 225.776 183.91 225.919 184.033 226.022C183.787 226.35 182.085 228.625 182.085 228.769C182.085 228.83 182.126 228.892 182.188 228.892C182.249 228.892 182.29 228.851 182.311 228.81C182.946 227.908 183.602 227.047 184.238 226.145L184.914 226.575C184.012 227.375 182.926 228.851 182.926 230.101C182.926 230.798 183.438 231.27 184.135 231.27C185.16 231.27 186.431 229.507 186.903 228.666C186.944 228.584 187.005 228.502 187.005 228.42ZM195.651 228.605C195.651 228.543 195.61 228.502 195.548 228.502C195.466 228.502 195.425 228.543 195.384 228.605C194.605 229.794 193.785 231.044 192.289 231.372C193.334 229.466 194.298 227.498 195.261 225.55L193.724 225.735L192.494 228.133C192.371 228.359 192.166 228.605 192.002 228.81C191.592 229.343 190.218 231.044 189.501 231.044C189.275 231.044 189.214 230.901 189.214 230.716C189.214 229.814 190.669 228.359 190.669 226.924C190.669 226.104 190.157 225.735 189.378 225.735C188.537 225.735 187.492 227.416 187.061 228.051C186.877 228.297 186.692 228.543 186.508 228.789C186.487 228.81 186.467 228.851 186.467 228.892C186.467 228.933 186.508 228.994 186.569 228.994C186.836 228.994 188.517 225.96 189.316 225.96C189.439 225.96 189.562 225.981 189.562 226.124C189.562 226.637 187.943 228.359 187.943 230.101C187.943 230.942 188.517 231.311 189.296 231.311C190.218 231.311 191.51 229.773 192.022 229.056L190.526 231.905C190.423 231.885 189.685 232.11 189.583 232.131C188.045 232.602 185.319 233.668 185.319 235.616C185.319 236.477 185.954 237.092 186.815 237.092C188.127 237.092 189.644 236.149 190.362 235.083C190.628 234.693 192.104 231.7 192.145 231.68C193.396 231.27 194.236 230.675 195.015 229.609C195.22 229.343 195.384 229.056 195.569 228.789C195.61 228.728 195.651 228.666 195.651 228.605ZM190.485 232.11C190.034 232.951 189.583 233.812 189.132 234.652C188.701 235.472 187.82 236.866 186.733 236.866C186.2 236.866 185.934 236.497 185.934 235.964C185.934 233.955 188.804 232.418 190.485 232.11Z" fill="#353F46"/>
</g>
<defs>
<clipPath id="clip0">
<rect width="286" height="243" fill="white"/>
</clipPath>
</defs>
</svg>
