<svg width="51" height="35" viewBox="0 0 51 35" fill="none" xmlns="http://www.w3.org/2000/svg">
<rect x="0.5" y="0.5" width="50" height="34" rx="5.5" fill="white" stroke="#D9D9D9"/>
<path fill-rule="evenodd" clip-rule="evenodd" d="M25.7683 25.347C24.034 26.8466 21.7844 27.7519 19.3261 27.7519C13.8411 27.7519 9.39453 23.2448 9.39453 17.685C9.39453 12.1252 13.8411 7.61816 19.3261 7.61816C21.7844 7.61816 24.034 8.52346 25.7683 10.0231C27.5026 8.52346 29.7522 7.61816 32.2105 7.61816C37.6955 7.61816 42.1421 12.1252 42.1421 17.685C42.1421 23.2448 37.6955 27.7519 32.2105 27.7519C29.7522 27.7519 27.5026 26.8466 25.7683 25.347Z" fill="#ED0006"/>
<path fill-rule="evenodd" clip-rule="evenodd" d="M25.7695 25.3472C27.9051 23.5007 29.2592 20.7532 29.2592 17.685C29.2592 14.6169 27.9051 11.8693 25.7695 10.0228C27.5038 8.52336 29.7533 7.61816 32.2115 7.61816C37.6965 7.61816 42.143 12.1252 42.143 17.685C42.143 23.2448 37.6965 27.7519 32.2115 27.7519C29.7533 27.7519 27.5038 26.8467 25.7695 25.3472Z" fill="#F9A000"/>
<path fill-rule="evenodd" clip-rule="evenodd" d="M25.7667 25.3467C27.902 23.5003 29.256 20.7528 29.256 17.6848C29.256 14.6168 27.902 11.8694 25.7667 10.0229C23.6313 11.8694 22.2773 14.6168 22.2773 17.6848C22.2773 20.7528 23.6313 23.5003 25.7667 25.3467Z" fill="#FF5E00"/>
</svg>
