<svg width="31" height="31" viewBox="0 0 31 31" fill="none" xmlns="http://www.w3.org/2000/svg">
<g clip-path="url(#clip0)">
<path d="M29.9903 25.6194C30.1937 25.4922 30.3085 25.2614 30.287 25.0223C30.278 24.9217 30.0463 22.5405 28.3437 20.8378C28.1301 20.6242 27.9012 20.4296 27.6589 20.2554C28.2386 19.6284 29.0615 18.5731 29.3691 17.371C29.4446 17.0759 29.3005 16.7686 29.0254 16.6378C28.8919 16.5744 26.6353 15.5213 23.9309 15.4167C26.0105 14.1283 28.6457 12.2032 30.2153 9.95131C30.4292 9.64415 30.3337 9.21857 30.0072 9.03324C29.9544 9.00333 28.9169 8.42057 27.4418 8.02586C28.3063 6.83836 29.6266 4.49721 29.3277 1.57093C29.297 1.27037 29.0594 1.03279 28.7588 1.00209C25.8325 0.703171 23.4913 2.02351 22.3038 2.88794C21.9092 1.41284 21.3264 0.375251 21.2965 0.322515C21.1119 -0.00346852 20.6858 -0.0998588 20.3784 0.114416C18.1265 1.68391 16.2015 4.31926 14.913 6.39879C14.8084 3.6943 13.7554 1.43778 13.6919 1.30434C13.5611 1.02921 13.2539 0.885174 12.9588 0.960676C11.7567 1.26819 10.7014 2.09114 10.0743 2.67069C9.90013 2.42845 9.70553 2.19964 9.49192 1.98603C7.78911 0.283341 5.40799 0.05175 5.30748 0.0427286C5.06838 0.0212345 4.83764 0.136091 4.71049 0.339528C3.55109 2.19437 3.6743 4.23861 3.90323 5.44397C2.45132 5.25083 1.23596 5.50525 1.17342 5.51869C0.822612 5.59419 0.604099 5.94415 0.688562 6.29193C1.33907 8.96621 3.10673 11.4114 5.1035 13.3018L2.41469 13.615C1.95435 13.6686 1.70175 14.183 1.94539 14.5805C4.64093 18.9783 1.73408 21.4157 1.61153 21.5153C1.16252 21.8724 1.37994 22.5971 1.95132 22.6481L7.2118 23.118C7.75254 28.5701 7.57114 28.4776 7.86582 28.7723C8.14524 29.0517 8.60388 29.0134 8.83408 28.6955C8.9473 28.5662 9.54877 27.9206 10.5633 27.5363C12.1226 26.9457 13.8675 27.231 15.7494 28.3844C15.9347 28.498 16.1651 28.5093 16.3606 28.4143C16.5561 28.3192 16.6896 28.131 16.7148 27.9151L17.028 25.2263C17.1429 25.3476 17.2671 25.4758 17.4005 25.6092C17.4006 25.6093 17.4006 25.6093 17.4006 25.6093C18.858 27.0667 21.1926 28.9493 24.0379 29.6413C24.3857 29.7258 24.7357 29.5071 24.8111 29.1565C24.8246 29.094 25.079 27.8786 24.8858 26.4267C26.0911 26.6555 28.1354 26.7787 29.9903 25.6194Z" fill="#F6B138"/>
<path d="M7.70065 22.6293C5.03018 15.268 7.6203 6.98337 14.1548 2.48106C13.9215 1.79549 13.7186 1.36071 13.6919 1.30446C13.5611 1.02933 13.2539 0.885293 12.9588 0.960795C11.7567 1.26831 10.7014 2.09126 10.0743 2.67081C9.90013 2.42857 9.70553 2.19976 9.49192 1.98615C7.78911 0.283339 5.40799 0.0517477 5.30748 0.0427262C5.06838 0.0212322 4.83764 0.136089 4.71049 0.339526C3.55109 2.19437 3.6743 4.23861 3.90323 5.44397C2.45132 5.25083 1.23596 5.50524 1.17342 5.51869C0.822612 5.59419 0.604099 5.94415 0.688562 6.29193C1.33907 8.96621 3.10673 11.4114 5.1035 13.3018L2.41469 13.615C1.95435 13.6686 1.70175 14.183 1.94539 14.5805C4.64093 18.9783 1.73408 21.4157 1.61153 21.5153C1.16252 21.8724 1.37994 22.5971 1.95132 22.6481L7.2118 23.118V23.1182L7.70065 22.6293Z" fill="#F2902F"/>
<path d="M23.4341 21.4412C23.2885 21.3643 21.3116 20.3307 18.624 19.4938L19.813 18.4996C20.0079 18.3367 20.0338 18.0466 19.8708 17.8517C19.7078 17.6568 19.4177 17.6309 19.2228 17.7938L17.5596 19.1844C15.9024 18.7383 14.0534 18.4091 12.2326 18.4223C13.2288 17.4341 14.5964 16.1343 15.5327 15.2577C15.539 15.2519 15.9127 14.9048 15.8895 14.9263L15.8896 14.9265C16.2813 14.565 16.666 14.2136 17.0411 13.8745C19.9611 14.0076 19.8343 14.0024 19.8547 14.0024C20.099 14.0024 20.3026 13.81 20.3138 13.5633C20.3254 13.3095 20.1291 13.0944 19.8752 13.0828L18.0183 12.9981C21.1851 10.1814 23.475 8.36923 23.504 8.34634C23.7035 8.18892 23.7376 7.89969 23.5802 7.70025C23.4227 7.50075 23.1334 7.46672 22.9341 7.62414C22.9151 7.6391 21.9352 8.41446 20.3775 9.73262L20.2831 8.53573C20.2632 8.28246 20.0416 8.09289 19.7884 8.1133C19.5351 8.13328 19.346 8.35476 19.3659 8.60808C19.5156 10.4298 19.4901 10.3504 19.5281 10.4566C18.2163 11.583 16.8756 12.7725 15.6063 13.9367L15.4892 12.4519C15.4692 12.1987 15.2477 12.0092 14.9944 12.0295C14.7411 12.0495 14.552 12.271 14.572 12.5243L14.7461 14.7317C13.7766 15.6346 12.8045 16.565 11.835 17.5218C11.7908 15.8672 11.4823 14.2063 11.0777 12.7032L12.4686 11.0397C12.6315 10.8448 12.6056 10.5547 12.4108 10.3917C12.2158 10.2288 11.9257 10.2547 11.7627 10.4495L10.7684 11.6387C9.93161 8.95108 8.8982 6.97399 8.82118 6.82838C8.70245 6.60381 8.42406 6.51795 8.19949 6.63681C7.97492 6.7556 7.88913 7.03393 8.00792 7.2585C8.03232 7.3047 9.83364 10.7504 10.5907 14.7146L9.37864 14.0507C9.15582 13.9287 8.87622 14.0105 8.75422 14.2332C8.63216 14.456 8.71389 14.7356 8.93671 14.8576C10.7569 15.8493 10.6783 15.8232 10.7754 15.8516C10.8895 16.7136 10.9434 17.5868 10.9103 18.4433C10.558 18.798 10.203 19.1594 9.84599 19.5279C9.21909 19.2582 8.02499 18.7966 6.63054 18.5182C6.38158 18.4682 6.13909 18.6302 6.08938 18.8793C6.03967 19.1284 6.20127 19.3707 6.45042 19.4204C7.54771 19.6394 8.52777 19.9864 9.16145 20.241C6.20175 23.3492 3.19622 26.8599 0.975186 30.29C0.837079 30.5032 0.898049 30.788 1.11129 30.9261C1.18861 30.9761 1.27525 31 1.36093 31C1.51169 31 1.65942 30.926 1.74746 30.79C3.9519 27.3857 6.94932 23.8921 9.89794 20.8018C10.1509 21.3942 10.5841 22.5197 10.842 23.812C10.8857 24.0308 11.0778 24.1821 11.2927 24.1821C11.5842 24.1821 11.8009 23.9156 11.7443 23.6319C11.4038 21.9262 10.789 20.5199 10.587 20.0854C10.8201 19.8452 11.0524 19.6083 11.2837 19.3739C11.4756 19.3991 12.4592 19.2288 14.4105 19.4873C14.437 19.5777 14.4121 19.5046 15.4049 21.3258C15.5267 21.5482 15.8063 21.6305 16.0293 21.5083C16.2521 21.3863 16.3339 21.1067 16.2118 20.8839L15.5484 19.6724C19.5105 20.4299 22.9579 22.2301 23.0041 22.2546C23.2283 22.3729 23.5068 22.2879 23.6257 22.0628C23.7444 21.8383 23.6587 21.56 23.4341 21.4412Z" fill="#6B5445"/>
</g>
<defs>
<clipPath id="clip0">
<rect width="31" height="31" fill="white"/>
</clipPath>
</defs>
</svg>
