<svg width="123" height="123" viewBox="0 0 123 123" fill="none" xmlns="http://www.w3.org/2000/svg">
<path d="M120.11 27.2937C118.277 24.6492 115.239 23.0625 112.004 23.0625H28.3766L19.7297 23.0502L18.8072 18.0564L17.9093 11.8203C17.7494 10.6764 16.7654 9.8277 15.5969 9.8277H3.56747C2.27597 9.8277 1.23047 10.8609 1.23047 12.1401C1.23047 13.4193 2.27597 14.4525 3.56747 14.4525H13.5797L14.1947 18.7452C14.1947 18.7698 14.207 18.8067 14.207 18.8313L15.4124 25.3749C15.4124 25.6455 15.4616 25.9038 15.5477 26.1498L17.3189 35.7807C17.3312 35.8176 17.3312 35.8545 17.3435 35.8914L26.2118 73.8738C26.2241 73.923 26.2364 73.9722 26.2487 74.0091C28.475 81.4137 33.026 85.6572 38.7209 85.6572H90.5531C95.9651 85.6572 100.393 81.9549 104.108 74.3535C104.12 74.3289 104.132 74.3043 104.145 74.2797L121.032 36.2973C121.045 36.2604 121.057 36.2358 121.069 36.1989C122.262 33.1362 121.918 29.889 120.11 27.2937ZM116.74 34.4892L99.8765 72.3855C97.0229 78.2034 93.9725 81.0447 90.5408 81.0447H38.7086C33.9731 81.0447 31.6853 75.891 30.7382 72.7668L21.8945 34.9074L20.5784 27.675L28.3766 27.6873H112.017C113.689 27.6873 115.313 28.536 116.272 29.9136C117.183 31.242 117.355 32.8656 116.74 34.4892ZM38.4503 88.0311C31.4516 88.0311 25.7567 93.6645 25.7567 100.602C25.7567 107.527 31.4516 113.172 38.4503 113.172C45.449 113.172 51.1439 107.539 51.1439 100.602C51.1562 93.6645 45.4613 88.0311 38.4503 88.0311ZM38.4503 108.535C34.0223 108.535 30.4307 104.968 30.4307 100.589C30.4307 96.2106 34.0346 92.6436 38.4503 92.6436C42.8783 92.6436 46.4699 96.2106 46.4699 100.589C46.4822 104.968 42.8783 108.535 38.4503 108.535ZM90.8237 88.0311C83.825 88.0311 78.1301 93.6645 78.1301 100.602C78.1301 107.527 83.825 113.172 90.8237 113.172C97.8224 113.172 103.517 107.539 103.517 100.602C103.517 93.6645 97.8224 88.0311 90.8237 88.0311ZM90.8237 108.535C86.3957 108.535 82.8041 104.968 82.8041 100.589C82.8041 96.2106 86.408 92.6436 90.8237 92.6436C95.2394 92.6436 98.8433 96.2106 98.8433 100.589C98.8433 104.968 95.2517 108.535 90.8237 108.535ZM67.2815 36.162C63.6776 36.162 60.1967 37.2321 57.2447 39.2616C55.4243 40.5162 53.8745 42.066 52.6568 43.8618L51.599 41.4633C51.0824 40.2948 49.7048 39.7536 48.524 40.2702C47.3432 40.7745 46.802 42.1398 47.3186 43.3083L50.5043 50.553C50.8856 51.4263 51.7466 51.9429 52.6445 51.9429C52.952 51.9429 53.2718 51.8814 53.5793 51.7461L60.8978 48.5973C62.0786 48.093 62.6198 46.7277 62.1032 45.5592C61.5866 44.3907 60.209 43.8495 59.0282 44.3661L57.7736 44.9073C60.1721 42.3366 63.5915 40.7991 67.2938 40.7991C74.4524 40.7991 80.2703 46.5678 80.2703 53.6403C80.2703 60.7251 74.4524 66.4815 67.2938 66.4815C63.1118 66.4815 59.1512 64.4643 56.7158 61.0818C55.9655 60.0363 54.5141 59.8026 53.4563 60.5406C52.4108 61.2786 52.1648 62.73 52.9151 63.7632C56.2238 68.3634 61.5989 71.1063 67.2938 71.1063C77.0231 71.1063 84.9443 63.2712 84.9443 53.6403C84.9197 43.9971 77.0108 36.162 67.2815 36.162Z" fill="black"/>
</svg>
