<svg width="50" height="50" viewBox="0 0 50 50" fill="none" xmlns="http://www.w3.org/2000/svg">
<g filter="url(#filter0_i)">
<circle cx="25" cy="25" r="25" fill="#1A7861"/>
</g>
<path fill-rule="evenodd" clip-rule="evenodd" d="M17.7481 29.6573C17.5287 29.4376 17.4054 29.1397 17.4054 28.8292C17.4054 28.5186 17.5287 28.2208 17.7481 28.001L24.3888 21.3604C24.6085 21.141 24.9063 21.0177 25.2169 21.0177C25.5274 21.0177 25.8253 21.141 26.045 21.3604L32.6856 28.001C32.8926 28.2232 33.0053 28.517 33 28.8206C32.9946 29.1242 32.8716 29.4139 32.6569 29.6286C32.4422 29.8433 32.1525 29.9663 31.849 29.9716C31.5454 29.977 31.2515 29.8643 31.0294 29.6573L25.2169 23.8448L19.4044 29.6573C19.1847 29.8767 18.8868 30 18.5763 30C18.2657 30 17.9679 29.8767 17.7481 29.6573V29.6573Z" fill="#F7F7F7"/>
<defs>
<filter id="filter0_i" x="0" y="0" width="50" height="50" filterUnits="userSpaceOnUse" color-interpolation-filters="sRGB">
<feFlood flood-opacity="0" result="BackgroundImageFix"/>
<feBlend mode="normal" in="SourceGraphic" in2="BackgroundImageFix" result="shape"/>
<feColorMatrix in="SourceAlpha" type="matrix" values="0 0 0 0 0 0 0 0 0 0 0 0 0 0 0 0 0 0 127 0" result="hardAlpha"/>
<feOffset/>
<feGaussianBlur stdDeviation="2.5"/>
<feComposite in2="hardAlpha" operator="arithmetic" k2="-1" k3="1"/>
<feColorMatrix type="matrix" values="0 0 0 0 0 0 0 0 0 0 0 0 0 0 0 0 0 0 0.25 0"/>
<feBlend mode="normal" in2="shape" result="effect1_innerShadow"/>
</filter>
</defs>
</svg>
