<svg width="161" height="136" viewBox="0 0 161 136" fill="none" xmlns="http://www.w3.org/2000/svg">
<g clip-path="url(#clip0)">
<path d="M73.6345 105.271C73.6345 104.711 73.2091 104.844 72.9734 104.735C64.0796 100.779 55.0364 100.032 45.746 102.82C39.3186 104.748 33.0061 107.139 26.5327 108.843C21.5311 110.174 16.4949 111.089 11.3438 110.234C7.08951 109.53 3.43887 107.632 1.21975 103.176C0.184925 101.092 -0.269248 98.9055 0.782824 96.6108C1.75441 94.4908 3.5826 93.5995 5.26132 94.4366L5.3648 94.4908L5.33031 94.5691C2.4098 94.3704 0.777075 96.7614 1.70267 99.9896C2.59952 103.097 4.69791 104.856 7.27922 105.94C9.86054 107.024 12.5338 107.145 15.2359 106.855C21.6173 106.253 27.6308 103.844 33.719 101.839C39.3301 99.9655 44.9583 98.2249 50.8109 97.5925C54.442 97.1781 58.1131 97.3815 61.6823 98.1948C62.5159 98.1948 63.2805 98.6284 64.0911 98.7971C64.2406 98.7971 64.0911 98.5501 64.1256 98.7188C64.1256 98.785 64.1256 98.8212 64.0451 98.8031C63.2876 98.6513 62.5567 98.3791 61.8777 97.996C57.244 96.4061 52.4091 96.129 47.6834 95.1714C43.0842 94.2499 38.9104 92.3287 35.6104 88.4139C31.7988 83.8728 31.4309 77.2659 34.6733 72.6344C37.4961 68.6052 42.9059 67.4368 46.3554 70.1109C50.2877 73.1222 50.3279 79.8255 46.4071 82.2768C44.7169 83.3307 42.9577 83.4452 41.2732 82.2346C40.575 81.7304 40.0235 81.0338 39.6795 80.2218C39.3356 79.4097 39.2127 78.5139 39.3243 77.6333C39.3792 76.926 39.6191 76.2483 40.0177 75.6745C40.4163 75.1008 40.9581 74.6532 41.5837 74.381C42.9174 73.9233 43.9638 74.3328 45.0331 75.8927C44.3087 75.3868 43.8833 74.8688 43.2394 74.8086C42.8858 74.7774 42.5299 74.8208 42.1926 74.9361C41.8553 75.0514 41.5435 75.2363 41.2755 75.48C41.0076 75.7236 40.789 76.021 40.6326 76.3547C40.4761 76.6883 40.3851 77.0514 40.3649 77.4225C40.1752 79.1811 41.4169 81 42.9577 81.1565C43.7133 81.2772 44.4859 81.1315 45.1539 80.7424C45.822 80.3532 46.3477 79.7426 46.6486 79.0064C47.0347 78.226 47.2024 77.3471 47.1322 76.4711C47.062 75.5952 46.7568 74.7578 46.2519 74.0558C44.1247 70.8216 39.6003 71.1649 37.2202 74.658C35.001 77.9464 35.3287 82.4876 38.0768 85.8603C40.6868 89.0403 44.096 90.558 47.6834 91.63C51.2708 92.7021 55.0019 92.9611 58.572 94.1536C66.6451 96.7384 73.9929 101.351 79.9757 107.59C80.0562 107.675 80.1136 107.777 80.3954 108.156L74.9338 105.982C74.6003 105.543 73.8932 105.91 73.6345 105.271Z" fill="#2B3944"/>
<path d="M86.4663 105.976L81.0967 108.06C82.5915 106.156 84.3086 104.457 86.2076 103.001C92.6682 97.8127 100.216 94.3131 108.226 92.7923C112.09 92.0816 115.896 91.2505 119.368 89.1185C122.242 87.3478 124.542 84.9688 125.261 81.1324C125.801 78.121 125.071 75.5493 123.001 73.604C121.162 71.8754 119.012 71.1949 116.723 72.3452C115.039 73.1884 114.148 74.7543 114.09 76.8984C114.034 77.6782 114.195 78.4585 114.554 79.144C114.913 79.8295 115.455 80.3906 116.114 80.7589C116.782 81.1681 117.571 81.3029 118.328 81.1371C119.086 80.9713 119.757 80.5167 120.213 79.8616C120.629 79.2537 120.845 78.5203 120.827 77.7726C120.809 77.0248 120.56 76.3035 120.115 75.7179C119.052 74.4833 117.816 74.5134 116.235 75.8384C116.419 75.3382 116.749 74.9119 117.179 74.6208C117.609 74.3297 118.115 74.1888 118.626 74.2183C119.224 74.2144 119.809 74.3937 120.311 74.734C120.812 75.0742 121.208 75.5607 121.449 76.1335C121.815 76.8766 121.982 77.7096 121.932 78.5441C121.883 79.3787 121.618 80.1835 121.167 80.8734C120.752 81.638 120.126 82.2529 119.37 82.6368C118.615 83.0206 117.766 83.1555 116.936 83.0235C115.827 82.9196 114.777 82.4585 113.929 81.7035C113.08 80.9486 112.476 79.9369 112.199 78.8076C111.797 77.5426 111.716 76.1898 111.965 74.8823C112.214 73.5749 112.784 72.3579 113.619 71.3515C115.815 68.5328 119.282 67.8643 122.633 69.4905C129.182 72.6704 130.78 81.8069 125.847 88.0826C122.835 91.919 118.868 93.768 114.585 94.9665C111.601 95.7977 108.525 95.8217 105.524 96.4361C103.138 96.9239 100.793 97.5744 98.4587 98.279C98.107 98.4889 97.7375 98.6644 97.3549 98.803C97.6888 98.642 98.0432 98.5325 98.407 98.4778C101.278 97.7807 104.216 97.4291 107.163 97.4298C112.469 97.5081 117.592 98.797 122.685 100.315C127.94 101.881 133.068 103.928 138.351 105.392C142.479 106.524 146.63 107.446 150.907 106.783C154.357 106.241 157.34 104.741 159.145 101.086C159.679 99.9687 159.852 98.7008 159.64 97.472C159.335 95.4182 157.95 94.4124 155.886 94.6533C157.444 93.6235 159.421 94.5088 160.41 96.6589C161.399 98.809 161.043 100.983 160.094 103.013C158.185 107.078 154.989 109.138 151.154 110.035C145.951 111.24 140.806 110.469 135.724 109.186C128.911 107.482 122.311 104.88 115.556 102.898C107.41 100.489 99.3556 100.489 91.3415 103.567C90.3699 104.434 89.0878 104.5 88.0473 105.187C87.5298 105.452 86.9089 105.5 86.4663 105.976Z" fill="#2C3944"/>
<path d="M78.3309 53.8736C78.3712 54.9155 78.4172 55.9575 78.4459 56.9994C78.4459 57.5053 78.5034 58.0714 77.8308 58.0654C77.2559 58.0654 76.681 58.2882 76.4855 57.2764C76.2457 55.8507 75.7334 54.4905 74.9792 53.2773C74.6089 52.6308 74.0752 52.1042 73.437 51.7556C72.7989 51.407 72.0811 51.2499 71.3631 51.3019C70.7866 51.3018 70.2246 51.4912 69.7564 51.8434C69.2881 52.1957 68.9372 52.693 68.7531 53.2653C68.5266 53.8655 68.4604 54.5191 68.5617 55.1557C68.663 55.7924 68.9279 56.3881 69.328 56.8789C70.2133 58.0293 71.4781 58.4268 72.6509 58.9989C73.6627 59.4928 74.7148 59.8963 75.6921 60.4564C78.5666 62.0826 79.5325 64.1785 79.1875 67.6415C79.022 69.026 78.4708 70.3288 77.6028 71.3871C76.7347 72.4453 75.5883 73.2122 74.3066 73.592C72.2139 74.1691 69.9921 73.9272 68.0574 72.9114C67.5688 72.6705 67.1318 72.3091 66.7122 73.1704C66.4477 73.7365 65.7521 73.4715 65.2749 73.3992C64.7977 73.327 64.9759 72.7307 64.9644 72.3693C64.8725 70.159 64.815 67.9427 64.7402 65.7444C64.7402 65.2264 64.815 64.7928 65.3784 64.841C65.8383 64.8771 66.4132 64.5458 66.6087 65.4432C66.8871 66.8155 67.4204 68.117 68.1781 69.2737C68.6054 69.9998 69.1951 70.6058 69.8964 71.0393C70.5976 71.4727 71.3892 71.7204 72.2025 71.7611C73.9789 71.8333 75.2322 71.0203 75.6519 69.5086C75.9169 68.6399 75.9212 67.707 75.6642 66.8357C75.4072 65.9645 74.9012 65.1967 74.2146 64.6362C73.3885 64.1085 72.5142 63.6687 71.6046 63.3232C70.5582 62.8173 69.4717 62.3897 68.4714 61.7874C67.2712 61.1155 66.3173 60.0461 65.7588 58.7461C65.2002 57.4462 65.0685 55.989 65.3841 54.6023C65.6255 53.2163 66.2824 51.947 67.2594 50.9787C68.2363 50.0104 69.4825 49.3937 70.8169 49.218C72.4303 49.0155 74.0621 49.3799 75.4564 50.2539C75.8129 50.4768 76.1233 50.7358 76.4453 50.1034C76.8189 49.3626 77.5261 49.6999 78.0492 49.7842C78.5724 49.8685 78.2619 50.4888 78.2734 50.8622C78.3079 51.862 78.2734 52.8678 78.2734 53.8736H78.3309Z" fill="#2C3844"/>
<path d="M81.9707 69.1351C81.9707 68.0088 81.9707 66.8826 81.9707 65.7503C81.9707 65.2504 82.0109 64.7746 82.5916 64.8288C83.0458 64.871 83.6322 64.5096 83.8334 65.4311C84.1231 66.8434 84.676 68.1819 85.4604 69.3699C85.8961 70.0897 86.4944 70.686 87.2023 71.1061C87.9101 71.5263 88.7059 71.7574 89.5192 71.779C91.2439 71.779 92.4569 71.0141 92.8766 69.5506C93.1503 68.6844 93.1607 67.7505 92.9064 66.8778C92.6521 66.0051 92.1455 65.2366 91.4566 64.6783C90.7897 64.2502 90.0897 63.8815 89.364 63.5761C88.1854 62.9738 86.9609 62.5281 85.8168 61.8717C84.5949 61.2256 83.6134 60.1714 83.0272 58.8757C82.4411 57.5799 82.2837 56.1165 82.5801 54.7167C82.7975 53.3047 83.4453 52.0043 84.4266 51.0099C85.408 50.0156 86.6701 49.3806 88.0244 49.1999C89.6172 48.9732 91.2366 49.3125 92.6236 50.1635C93.0203 50.4105 93.394 50.7658 93.7735 50.0069C94.1069 49.3685 94.8025 49.6697 95.2969 49.754C95.7914 49.8383 95.5327 50.4526 95.5442 50.82C95.6131 52.8195 95.6591 54.8251 95.6936 56.8427C95.6936 57.3486 95.8489 58.0473 95.1187 58.0473C94.5438 58.0774 93.9229 58.234 93.7275 57.1619C93.5038 55.8162 93.0269 54.5305 92.3247 53.3796C91.9678 52.725 91.4475 52.1845 90.8195 51.8163C90.1915 51.4481 89.4796 51.2661 88.7603 51.2898C88.1663 51.2651 87.5804 51.4408 87.0889 51.791C86.5973 52.1411 86.226 52.6473 86.0295 53.2351C85.7908 53.8527 85.723 54.5283 85.8338 55.1845C85.9446 55.8406 86.2296 56.4508 86.6562 56.9451C87.5013 58.0171 88.6913 58.4026 89.8009 58.9446C90.9104 59.4867 91.9338 59.8661 92.9456 60.4383C95.8201 62.0644 96.8434 64.2687 96.4525 67.7438C96.2553 69.1234 95.6782 70.4127 94.7918 71.4536C93.9054 72.4945 92.7482 73.2418 91.4623 73.6039C89.3329 74.1454 87.0887 73.8676 85.1384 72.821C84.713 72.6102 84.3795 72.3753 84.0633 73.0438C83.7472 73.7123 83.063 73.4353 82.5571 73.3931C82.0512 73.351 82.2639 72.7366 82.2352 72.3753C82.1489 71.2972 82.1144 70.2071 82.0627 69.129L81.9707 69.1351Z" fill="#2C3844"/>
<path d="M123.979 96.7974C129.429 97.1046 134.833 97.3033 140.139 95.7133C141.948 95.1786 143.617 94.2211 145.02 92.9127C145.434 92.5273 145.877 91.9551 146.469 92.3948C147.061 92.8345 146.952 93.5632 146.866 94.2016C146.742 95.0067 146.457 95.7752 146.029 96.4563C145.601 97.1374 145.039 97.7155 144.382 98.1525C141.462 100.327 138.156 100.562 134.822 100.381C129.941 100.092 125.249 98.7247 120.644 96.9359C120.506 96.8817 120.351 96.8516 120.334 96.5685C122.91 95.6692 125.41 94.5471 127.808 93.2139C128.892 92.5811 129.93 91.8644 130.912 91.0698C132.513 89.7515 133.639 87.9014 134.103 85.824C134.281 85.1314 134.511 84.2942 135.373 84.3484C136.236 84.4027 136.443 85.1073 136.69 85.83C137.455 88.0584 136.638 90.9915 134.672 92.8766C132.332 95.111 129.498 95.9783 126.566 96.436C125.721 96.5926 124.847 96.683 123.979 96.7974Z" fill="#2C3944"/>
<path d="M41.2045 96.6529C38.6135 97.7611 35.9411 98.6474 33.2133 99.3028C29.5684 100.17 25.9006 100.79 22.1579 100.23C19.7434 99.875 17.4667 99.1342 15.696 97.1106C15.2081 96.6278 14.8306 96.0358 14.5917 95.3788C14.3528 94.7218 14.2586 94.0167 14.3163 93.3163C14.4313 92.2743 14.9889 91.8708 15.6558 92.5032C20.37 96.9239 26.0673 96.8155 31.6841 97.0443C33.7353 97.1135 35.7885 97.0713 37.8355 96.9179C35.405 96.749 33.0042 96.2614 30.6895 95.4664C28.3381 94.563 26.2283 93.2621 24.9405 90.7145C24.4832 89.9088 24.2201 88.9986 24.174 88.0626C24.128 87.1265 24.3003 86.1928 24.676 85.3422C24.9117 84.8182 25.2509 84.3605 25.8258 84.3725C26.4007 84.3846 26.7744 84.8845 26.8951 85.4446C27.9242 90.1363 31.2242 92.1418 34.6678 93.9607C36.768 95.055 38.9552 95.9558 41.2045 96.6529Z" fill="#2C3944"/>
<path d="M66.126 27.8736C67.1679 26.9952 68.4651 26.5162 69.8025 26.5162C71.1399 26.5162 72.4371 26.9952 73.479 27.8736C74.751 28.9996 76.2909 29.7427 77.9345 30.0237C75.3474 30.6259 73.1685 30.4272 71.1794 29.042C69.6156 27.9639 67.9829 27.3496 66.126 27.8736Z" fill="#2D3941"/>
<path d="M90.5194 31.8727C88.5907 31.4905 86.8828 30.3288 85.7649 28.6385C84.5002 26.6751 83.4079 24.6334 81.1255 24.001C84.115 23.9648 86.5698 24.9164 87.8978 28.2169C88.458 29.6508 89.3608 30.9097 90.5194 31.8727Z" fill="#2D3A44"/>
<path d="M61.8432 38.058C60.2565 40.0997 58.3363 41.4247 55.9447 41.5993C55.0553 41.6348 54.1852 41.8808 53.3996 42.3189C52.614 42.757 51.9334 43.3758 51.4087 44.1289C51.8399 41.5873 54.5592 39.0939 57.0312 39.0457C58.6927 39.0156 60.3254 38.9493 61.8432 38.058Z" fill="#2D3A45"/>
<path d="M106.065 48.5375C104.949 46.6252 104.494 44.3692 104.777 42.1474C105.139 39.8829 105.547 37.6665 104.317 35.5225C105.406 36.4461 106.207 37.6894 106.616 39.093C107.026 40.4967 107.026 41.9965 106.617 43.4002C106.128 45.0615 105.941 46.804 106.065 48.5375Z" fill="#2D3944"/>
<path d="M103.943 44.1048C102.38 41.8342 101.523 39.401 101.851 36.5342C102.058 34.6792 101.402 33.0712 100.31 31.4691C101.545 32.2286 102.538 33.3553 103.161 34.7063C103.784 36.0573 104.011 37.5718 103.811 39.0577C103.676 39.9195 103.619 40.7926 103.639 41.6656C103.695 42.4841 103.797 43.2986 103.943 44.1048Z" fill="#2C3B44"/>
<path d="M81.89 29.8249C80.7705 29.9831 79.6313 29.8758 78.5567 29.5109C77.482 29.1461 76.4993 28.533 75.6811 27.717C74.3071 26.3438 72.7548 25.5789 70.7944 25.8078C72.9848 24.3202 76.3135 24.8923 77.837 26.5967C79.0328 27.9217 80.2228 29.2347 81.89 29.8249Z" fill="#2F3941"/>
<path d="M97.9352 36.6486C96.0656 35.4257 94.7344 33.4767 94.2328 31.2282C93.7729 29.048 92.9336 27.2592 91.1514 26.0366C93.7672 26.3618 96.1185 28.8793 96.5094 31.8064C96.6918 33.4996 97.1754 35.142 97.9352 36.6486Z" fill="#2C3940"/>
<path d="M57.1694 78.8077C58.6757 80.9578 59.63 83.3187 59.3483 86.1374C59.1249 87.9712 59.5954 89.8238 60.6591 91.2988C59.7565 91.0579 58.5722 89.757 57.957 88.2875C57.3256 86.9421 57.1241 85.4197 57.3821 83.9451C57.7235 82.2411 57.6504 80.4744 57.1694 78.8077Z" fill="#2E3842"/>
<path d="M112.084 50.5009C113.234 52.5546 112.986 56.2345 111.658 58.0533C111.084 58.8544 110.382 59.565 109.784 60.348C109.186 61.1309 108.945 62.1548 108.387 63.3593C108.387 60.5046 108.778 58.1136 110.244 56.1742C111.474 54.5843 112.302 52.8738 112.084 50.5009Z" fill="#2D3840"/>
<path d="M101.213 40.154C99.5093 38.5834 98.4438 36.3899 98.2346 34.0228C98.0852 31.8486 97.562 29.9575 96.0098 28.4458C98.2461 28.9818 100.396 32.0594 100.391 34.6311C100.31 36.5111 100.59 38.3889 101.213 40.154Z" fill="#2D3A44"/>
<path d="M57.6006 34.595C59.6932 32.0534 62.1251 30.8428 65.1893 32.1859C66.3756 32.66 67.6522 32.8334 68.9147 32.6918C67.9148 33.496 66.7198 33.9905 65.4653 34.1192C64.7055 34.2931 63.9171 34.2745 63.1656 34.065C61.2512 33.4386 59.4058 33.4085 57.6006 34.595Z" fill="#2D3943"/>
<path d="M52.731 60.0709C52.731 62.8293 52.2711 65.3709 50.5578 67.4548C49.9888 68.1663 49.5651 68.9925 49.3129 69.8823C49.0608 70.7722 48.9855 71.7067 49.0918 72.6283C47.8903 70.3336 48.172 66.6959 49.753 64.7987C50.943 63.3653 52.1043 61.944 52.731 60.0709Z" fill="#2D3840"/>
<path d="M106.835 72.6104C107.41 70.0567 108.56 68.0271 110.526 66.678C111.303 66.1975 111.971 65.5476 112.487 64.7723C113.003 63.9971 113.354 63.1147 113.515 62.1851C114.05 64.5941 112.894 67.9488 111.049 69.1594C109.543 70.1531 107.956 70.9782 106.835 72.6104Z" fill="#2E3843"/>
<path d="M107.554 53.1027C106.616 50.8044 106.56 48.2156 107.398 45.8754C107.797 44.9505 108.016 43.9512 108.04 42.9365C108.065 41.9218 107.896 40.9122 107.542 39.9672C108.464 40.9962 109.089 42.2774 109.346 43.6628C109.602 45.0482 109.479 46.4814 108.991 47.7967C108.278 49.5071 107.582 51.1694 107.554 53.1027Z" fill="#2E3A43"/>
<path d="M99.3267 85.0712C100.844 83.2223 102.581 81.831 104.857 81.6202C106.662 81.4576 108.307 80.9397 109.606 79.2533C109.278 81.5359 106.542 84.1016 104.334 84.0715C102.598 84.0775 100.919 84.1919 99.3267 85.0712Z" fill="#2D3A44"/>
<path d="M94.5089 34.0409C92.5781 33.2615 91.0143 31.7228 90.1511 29.7527C89.2428 27.6026 88.3689 25.5368 86.2705 24.5612C89.2255 25.0189 91.5366 26.368 92.3875 29.8792C92.7819 31.418 93.5076 32.8416 94.5089 34.0409Z" fill="#2D3843"/>
<path d="M73.1112 31.0053C70.8921 31.9147 68.6845 32.0954 66.4826 31.0053C65.7263 30.607 64.8915 30.3995 64.045 30.3995C63.1985 30.3995 62.3637 30.607 61.6074 31.0053C62.9699 29.0238 66.3274 28.1385 68.4258 29.3129C69.8698 30.1859 71.4604 30.7605 73.1112 31.0053Z" fill="#2D3842"/>
<path d="M56.3359 45.8213C55.4735 48.14 54.1512 50.0372 52.1218 50.9888C50.3166 51.8621 48.8621 53.0365 48.0573 55.283C47.9883 52.4402 49.644 49.4168 51.8401 48.5315C53.4671 47.8811 55.0538 47.2186 56.3359 45.8213Z" fill="#2E3943"/>
<path d="M75.8306 24.5304C78.0439 23.4704 81.2692 24.434 82.6604 26.5118C83.632 27.9693 84.5863 29.4148 86.0236 30.3784C85.0088 30.3431 84.0127 30.0828 83.1009 29.6146C82.1892 29.1464 81.3827 28.4809 80.7345 27.6622C79.4352 25.9939 78.0727 24.6026 75.8306 24.5304Z" fill="#2C3842"/>
<path d="M53.6391 83.2103C52.6317 82.0518 51.987 80.598 51.7917 79.0444C51.5964 77.4907 51.8599 75.9116 52.5468 74.5195C53.2063 73.1047 53.569 71.5583 53.6104 69.9844C54.5642 72.2285 54.6446 74.7739 53.8346 77.0791C53.093 79.1389 52.7883 81.1204 53.6391 83.2103Z" fill="#2E3842"/>
<path d="M80.004 99.1284C77.0835 99.1284 74.5942 98.2009 73.2891 94.8643C72.7322 93.44 71.8087 92.2056 70.6216 91.2988C72.3463 91.4494 74.8931 93.2381 75.8417 95.1172C76.7903 96.9963 78.0953 98.4598 80.004 99.1284Z" fill="#2E3943"/>
<path d="M54.4785 38.7566C54.9744 37.6059 55.7954 36.6424 56.8308 35.9962C57.8661 35.3499 59.0658 35.0521 60.2678 35.143C61.1129 35.2394 61.9523 35.3839 62.7916 35.4381C63.6377 35.4271 64.4779 35.2892 65.2867 35.0286C64.4976 35.8627 63.5467 36.5095 62.4983 36.9251C61.4499 37.3408 60.3285 37.5155 59.21 37.4376C57.5083 37.3172 55.91 37.54 54.4785 38.7566Z" fill="#2B3A44"/>
<path d="M58.497 41.9667C57.4679 43.9903 56.0191 45.4719 54.0587 46.0139C52.0983 46.556 50.4828 47.4172 49.333 49.5673C49.7354 46.4717 51.9718 43.8939 54.3807 43.4844C55.1093 43.3701 55.8268 43.1887 56.525 42.9424C57.1984 42.654 57.8567 42.3283 58.497 41.9667Z" fill="#2C3943"/>
<path d="M107.985 67.9246C108.051 65.4834 109.022 63.1652 110.693 61.4623C111.439 60.7995 112.051 59.987 112.492 59.0726C112.934 58.1582 113.196 57.1604 113.263 56.1382C114.131 59.2579 113.194 62.5343 111.009 64.2929C109.748 65.2441 108.714 66.4868 107.985 67.9246Z" fill="#2E3841"/>
<path d="M88.0127 92.1239C89.1148 91.6192 90.3079 91.3697 91.5104 91.3926C92.713 91.4154 93.8967 91.7101 94.9805 92.2564C96.4925 93.0273 98.0448 92.8587 99.712 92.142C97.7458 94.2921 94.8138 95.0027 92.6924 93.7982C91.2616 92.903 89.6673 92.3326 88.0127 92.1239Z" fill="#2C3945"/>
<path d="M113.113 68.0631C113.084 71.1708 111.325 73.9232 108.761 74.8266C107.312 75.3224 105.983 76.1447 104.869 77.2357C105.783 74.935 107.1 73.0198 109.192 72.0742C110.075 71.7255 110.879 71.1891 111.554 70.4987C112.228 69.8084 112.759 68.9791 113.113 68.0631Z" fill="#2D3940"/>
<path d="M90.4043 97.3757C87.4263 98.791 84.9139 98.273 82.9305 96.0085C81.9517 94.851 80.7534 93.9198 79.4121 93.2742C80.4251 93.1425 81.4531 93.2352 82.4297 93.5465C83.4062 93.8578 84.3094 94.3806 85.0807 95.081C86.5639 96.4301 88.1046 97.5624 90.4043 97.3757Z" fill="#2F3942"/>
<path d="M54.3752 50.561C53.8406 52.9701 52.777 54.9516 50.9258 56.2585C49.3448 57.3727 48.0513 58.7037 47.6489 61.0767C47.1602 58.0653 48.471 54.8853 50.6556 53.6386C52.0792 52.8833 53.344 51.8369 54.3752 50.561Z" fill="#2E3944"/>
<path d="M47.862 66.8405C47.2871 63.3835 47.8965 60.4444 50.6387 58.4449C51.7114 57.5466 52.5992 56.43 53.2488 55.1625C53.0476 57.6438 52.3175 59.8843 50.633 61.5164C49.0936 62.8548 48.102 64.76 47.862 66.8405Z" fill="#2E3840"/>
<path d="M95.9468 88.0886C97.7002 86.4263 99.6894 85.4928 101.995 85.6795C103.771 85.812 105.444 85.6313 106.881 84.0474C106.41 86.1553 103.093 88.462 100.971 87.9922C99.2985 87.6188 97.6255 87.4321 95.9468 88.0886Z" fill="#2C3943"/>
<path d="M108.347 57.9389C107.962 55.4335 107.996 52.9943 109.255 50.796C109.769 49.951 110.116 49.0065 110.275 48.0185C110.434 47.0305 110.402 46.0191 110.181 45.0443C111.532 46.6042 112.015 50.6213 110.681 52.7955C109.704 54.3976 108.709 55.9635 108.347 57.9389Z" fill="#2F393F"/>
<path d="M83.6147 93.0755C84.8423 92.7493 86.1239 92.7142 87.3661 92.9726C88.6083 93.2309 89.7798 93.7764 90.7953 94.5691C91.4532 95.0424 92.2124 95.3385 93.0057 95.4309C93.7989 95.5234 94.6016 95.4094 95.3428 95.0991C92.8707 97.0565 89.841 97.0444 87.7368 95.2617C86.5506 94.1964 85.1366 93.4464 83.6147 93.0755Z" fill="#2C3841"/>
<path d="M57.0084 87.7874C54.772 85.8481 53.7314 82.6199 54.4616 80.0542C55.0452 78.3167 55.2686 76.4689 55.117 74.6338C56.3282 76.6467 56.7658 79.0658 56.3415 81.4033C55.9103 83.5655 55.8126 85.5891 57.0084 87.7874Z" fill="#2D3944"/>
<path d="M92.2959 90.3893C93.9804 89.2631 95.7856 88.6187 97.7 89.0403C99.7467 89.492 101.724 89.8714 103.639 88.4922C101.563 91.0097 99.189 92.2263 96.165 90.9675C94.9319 90.4778 93.6105 90.2804 92.2959 90.3893Z" fill="#2E3842"/>
<path d="M102.569 81.1686C103.765 79.175 105.225 77.5971 107.324 77.0611C108.251 76.8753 109.132 76.4891 109.909 75.927C110.686 75.365 111.342 74.6395 111.837 73.7968C111.262 76.3865 110.078 78.5065 107.738 79.3437C106.03 79.964 104.168 80.0122 102.569 81.1686Z" fill="#2D3942"/>
<path d="M74.773 98.508C71.9502 98.0683 69.7081 96.7012 68.84 93.3345C68.4559 91.8307 67.7829 90.4248 66.8623 89.2029C67.8944 89.6536 68.8274 90.3211 69.6036 91.1643C70.3798 92.0075 70.9828 93.0085 71.3753 94.1054C71.944 95.9655 73.1559 97.5358 74.773 98.508Z" fill="#2E3941"/>
<path d="M59.9692 82.9634C60.8943 83.853 61.6407 84.927 62.1649 86.1224C62.6891 87.3179 62.9804 88.6108 63.022 89.9256C63.103 91.6078 63.7674 93.2012 64.8904 94.4065C62.8495 93.9729 60.8661 91.0338 60.7971 88.5705C60.8314 87.6111 60.791 86.6503 60.6764 85.6977C60.5035 84.7697 60.2672 83.8559 59.9692 82.9634Z" fill="#2E3942"/>
<path d="M85.0118 98.7609C82.0971 99.2729 79.5848 98.6585 77.9003 95.6412C77.124 94.4046 76.0975 93.3621 74.8936 92.5876C77.2794 92.943 79.3893 93.8765 80.9358 96.0748C81.915 97.485 83.3744 98.4468 85.0118 98.7609Z" fill="#2E3941"/>
<path d="M50.8513 77.7717C50.1057 76.5561 49.7161 75.1385 49.7304 73.6937C49.7447 72.2489 50.1623 70.8401 50.9317 69.641C51.7522 68.384 52.3933 67.0084 52.8347 65.5576C53.1687 67.0526 53.1568 68.6095 52.8002 70.0987C52.6636 70.7338 52.4349 71.3432 52.1218 71.9056C51.0243 73.6308 50.5719 75.7192 50.8513 77.7717Z" fill="#2E3841"/>
<path d="M69.9264 96.9962C67.4428 96.5445 65.1777 94.2498 64.804 91.9371C64.4878 90.0279 64.2291 88.1247 63.2402 86.4384C65.0132 87.5875 66.3021 89.4007 66.8449 91.5095C67.3508 93.6295 67.9832 95.6049 69.9264 96.9962Z" fill="#2C3A42"/>
<path d="M74.9795 105.813L73.6343 105.271C72.8006 104.97 71.9728 104.639 71.1277 104.368C66.2812 102.85 61.4003 101.7 56.3297 102.495C55.5363 102.621 54.7027 103.097 53.9726 102.929C51.3338 102.326 49.1319 103.416 46.9703 104.838C45.6591 105.81 44.259 106.643 42.7907 107.325C42.2561 107.536 41.8939 107.711 41.5834 106.922C41.5327 106.779 41.4492 106.653 41.3404 106.552C41.2316 106.452 41.1009 106.382 40.9598 106.347C40.8187 106.313 40.6717 106.315 40.5318 106.354C40.3918 106.394 40.2633 106.469 40.1577 106.572C39.6403 106.952 39.6805 107.548 39.9909 108.12C40.0944 108.313 40.3646 108.391 40.3129 108.668C39.6345 109.198 38.8354 108.873 37.9673 109.096C38.1081 109.167 38.2542 109.225 38.4042 109.271C40.7843 109.511 42.9344 108.56 45.0501 107.536C46.3321 106.934 47.5222 106.06 48.764 105.35C50.161 104.543 51.3223 104.26 52.2479 104.422C50.9026 106.783 50.9198 108.945 52.2881 110.312C52.7737 110.869 53.4499 111.201 54.1686 111.236C54.8873 111.271 55.59 111.006 56.1227 110.499C56.7335 109.973 57.1419 109.233 57.2725 108.415C57.5715 106.639 56.9678 105.187 55.7663 103.862C59.2358 103.209 62.7887 103.209 66.2583 103.862C69.2075 104.332 72.0648 105.253 74.9508 106.018C74.9508 106.018 75.0083 105.958 75.014 105.922C75.0198 105.886 74.9968 105.82 74.9795 105.813ZM55.956 107.62C55.956 108.771 55.1971 109.728 54.3118 109.734C53.3114 109.734 52.4376 108.614 52.4721 107.361C52.4721 106.307 53.4322 104.772 54.0703 104.729C54.8867 104.669 55.9675 106.331 55.956 107.614V107.62Z" fill="#2B3944"/>
<path d="M120.84 108.656C120.944 108.494 121.041 108.325 121.156 108.162C121.262 108.054 121.343 107.921 121.393 107.776C121.443 107.63 121.462 107.474 121.447 107.319C121.432 107.165 121.384 107.016 121.307 106.884C121.23 106.751 121.125 106.639 121.001 106.554C120.892 106.456 120.761 106.386 120.62 106.353C120.479 106.319 120.333 106.322 120.193 106.361C120.054 106.4 119.926 106.474 119.82 106.577C119.714 106.68 119.634 106.809 119.587 106.952C119.299 107.663 118.966 107.554 118.471 107.361C116.993 106.697 115.588 105.867 114.28 104.886C112.09 103.404 109.848 102.236 107.192 102.983C106.973 103.019 106.748 102.992 106.542 102.905C104.877 102.389 103.143 102.163 101.408 102.236C98.1487 102.236 94.9867 103.007 91.819 103.784C90.4112 103.97 89.0475 104.423 87.7947 105.121C87.5182 105.102 87.2429 105.174 87.0077 105.327C86.7725 105.481 86.5893 105.708 86.4839 105.976C90.7439 104.705 95.0269 103.567 99.4594 103.38C101.44 103.258 103.428 103.429 105.364 103.886C103.604 106.494 103.438 108.662 104.789 110.234C105.262 110.799 105.925 111.15 106.639 111.216C107.354 111.281 108.064 111.054 108.623 110.584C110.216 109.319 110.348 107.422 108.951 104.278C109.991 104.29 111.013 104.567 111.929 105.085C114.597 106.536 117.103 108.403 120.098 109.006C121.117 109.319 122.195 109.358 123.232 109.12C122.364 108.861 121.547 109.192 120.84 108.656ZM106.876 109.734C106.002 109.734 105.26 108.747 105.243 107.62C105.243 106.35 106.272 104.711 107.094 104.705C107.75 104.705 108.738 106.325 108.744 107.404C108.744 108.626 107.842 109.752 106.876 109.734Z" fill="#2C3944"/>
</g>
<defs>
<clipPath id="clip0">
<rect width="161" height="136" fill="white"/>
</clipPath>
</defs>
</svg>
