<svg width="51" height="35" viewBox="0 0 51 35" fill="none" xmlns="http://www.w3.org/2000/svg">
<rect x="0.5" y="0.5" width="50" height="34" rx="3.5" fill="white" stroke="#D9D9D9"/>
<path fill-rule="evenodd" clip-rule="evenodd" d="M10.9907 12.41C11.3366 12.4079 12.3647 12.3168 12.8002 13.7642C13.0935 14.7392 13.5608 16.3363 14.2019 18.5555H14.4631C15.1507 16.2158 15.6231 14.6187 15.8802 13.7642C16.3202 12.3017 17.4202 12.41 17.8602 12.41L21.2549 12.41V22.81H17.7949V16.6811H17.5629L15.6341 22.81H13.0309L11.1021 16.6766H10.8701V22.81H7.41016V12.41L10.9907 12.41ZM26.2233 12.41V18.5435H26.4993L28.8455 13.5C29.3009 12.4963 30.2716 12.41 30.2716 12.41H33.6198V22.81H30.0876V16.6766H29.8116L27.5114 21.72C27.056 22.7192 26.0393 22.81 26.0393 22.81H22.6911V12.41H26.2233ZM45.8288 17.3522C45.3361 18.7272 43.7888 19.712 42.0757 19.712H38.3715V22.81H35.0125V17.3522H45.8288Z" fill="#0F754E"/>
<path fill-rule="evenodd" clip-rule="evenodd" d="M42.2373 12.4102H34.8359C35.0121 14.7255 37.0367 16.7077 39.1326 16.7077H46.0617C46.4616 14.7833 45.0851 12.4102 42.2373 12.4102Z" fill="url(#paint0_linear)"/>
<defs>
<linearGradient id="paint0_linear" x1="46.1297" y1="15.1135" x2="34.8359" y2="15.1135" gradientUnits="userSpaceOnUse">
<stop stop-color="#1F5CD7"/>
<stop offset="1" stop-color="#02AEFF"/>
</linearGradient>
</defs>
</svg>
