<svg width="51" height="35" viewBox="0 0 51 35" fill="none" xmlns="http://www.w3.org/2000/svg">
<rect x="0.5" y="0.5" width="50" height="34" rx="5.5" fill="white" stroke="#D9D9D9"/>
<path fill-rule="evenodd" clip-rule="evenodd" d="M14.5703 16.869C14.5703 22.5157 19.1716 27.1208 24.8684 27.1208C25.5677 27.1208 26.2669 27.0595 27.0703 26.9891C27.9663 26.9106 28.9918 26.8207 30.2914 26.7918C32.2634 26.7918 34.3997 27.5045 36.7551 29.5877C36.9742 29.807 37.3029 29.5329 37.0838 29.2588C34.7283 26.3533 32.592 25.805 30.4557 25.3116C27.8264 24.7086 26.457 23.2832 25.5258 21.6386C25.3614 21.3096 25.2519 21.3644 25.2519 21.803C25.1971 22.4609 25.2519 23.0639 25.3614 23.667H25.0328C21.3079 23.667 18.2404 20.5969 18.2404 16.869C18.2404 13.1411 21.3079 10.0711 25.0328 10.0711C28.7576 10.0711 31.8252 13.1411 31.8252 16.869C31.8252 17.0883 31.8252 17.3624 31.7704 17.6365C31.2226 17.5269 30.2914 17.5269 29.5793 17.5817C29.3054 17.5817 29.3054 17.6914 29.5245 17.7462C31.7156 18.1848 33.2494 19.5553 33.6328 22.0771C33.6328 22.1868 33.6876 22.1868 33.7424 22.132C34.6188 20.5969 35.1666 18.7878 35.1666 16.869C35.1666 11.1675 30.5653 6.5625 24.8684 6.5625C19.1716 6.5625 14.5703 11.2224 14.5703 16.869ZM32.3178 21.0903C32.7013 21.2548 32.8656 21.803 32.8656 22.0771C32.9204 22.5157 32.8108 22.735 32.6465 22.735C32.4821 22.735 32.263 22.5705 32.0439 22.1868C31.8248 21.803 31.7153 21.4193 31.8248 21.2C31.9891 21.0903 32.1535 21.0355 32.3178 21.0903ZM30.0722 22.7898C30.2913 22.7898 30.5652 22.8995 30.8391 23.1188C31.2773 23.5025 31.4417 23.9411 31.2225 24.27C31.113 24.4345 30.8391 24.5441 30.62 24.5441C30.3461 24.5441 30.0722 24.4345 29.9079 24.27C29.4697 23.8863 29.3601 23.3381 29.634 23.0091C29.6888 22.8995 29.8531 22.7898 30.0722 22.7898Z" fill="#F28A1A"/>
</svg>
