<svg width="37" height="37" viewBox="0 0 37 37" fill="none" xmlns="http://www.w3.org/2000/svg">
<path d="M0 4C0 1.79086 1.79086 0 4 0H33C35.2091 0 37 1.79086 37 4V33C37 35.2091 35.2091 37 33 37H4C1.79086 37 0 35.2091 0 33V4Z" fill="#2AAA8B"/>
<g filter="url(#filter0_d)">
<path d="M29.4555 7.00005H27.4995V7.50005H29.3691C29.3312 7.61768 29.2786 7.74875 29.2072 7.89434C28.9026 8.51542 27.9258 10.1415 26.5861 12.2949C25.2615 14.4239 23.6182 17.0116 22.0145 19.5174C20.4112 22.0227 18.8493 24.4437 17.688 26.2386C17.1074 27.1359 16.627 27.8767 16.2918 28.393L15.9036 28.9907L15.8017 29.1474L15.7756 29.1875L15.7708 29.1948L15.7682 29.1987C15.7632 29.2059 15.7534 29.2196 15.7393 29.2382C15.7108 29.2761 15.6665 29.3316 15.6096 29.3938C15.4874 29.5272 15.3465 29.6479 15.2133 29.7158C15.0939 29.7767 15.0372 29.7696 14.9991 29.758C14.9459 29.7417 14.7393 29.6539 14.442 29.1992C13.7283 28.1076 12.2274 26.434 10.7983 24.8405C10.6181 24.6396 10.4391 24.4399 10.2629 24.2429C9.45587 23.3403 8.69276 22.4758 8.09582 21.7395C7.79745 21.3714 7.55004 21.0468 7.36341 20.7739C7.16745 20.4873 7.07466 20.3094 7.04355 20.2247C6.94243 19.9498 7.00721 19.594 7.47812 19.1797C7.9323 18.7802 8.56296 18.5349 9.03627 18.5127C9.0651 18.5268 9.12399 18.5583 9.2168 18.6238C9.41369 18.7628 9.66482 18.9843 9.96138 19.2867C10.5511 19.8879 11.2249 20.7099 11.8724 21.5588C12.5159 22.4023 13.1155 23.2487 13.5554 23.8861C13.775 24.2043 13.954 24.4692 14.0777 24.654C14.1396 24.7464 14.1876 24.8187 14.2199 24.8677L14.2564 24.923L14.2654 24.9367L14.2675 24.94L14.268 24.9406L14.268 24.9407L14.2681 24.9408L15.1323 26.2625L15.9576 24.9161L15.105 24.3935C15.9576 24.9161 15.9576 24.916 15.9577 24.9159L15.9581 24.9153L15.9596 24.9128L15.9657 24.9028L15.9898 24.8636L16.0839 24.7101L16.442 24.1266C16.751 23.6236 17.1932 22.904 17.7261 22.038C18.7922 20.3061 20.2212 17.9892 21.6735 15.6486C23.1261 13.3075 24.6005 10.9451 25.7579 9.12138C26.337 8.20894 26.8342 7.43516 27.2087 6.86755C27.3964 6.58318 27.5498 6.35564 27.6657 6.1903C27.7202 6.11243 27.7592 6.05893 27.785 6.02422C27.8456 6.00963 27.9431 5.99702 28.0736 6.00062C28.3596 6.0085 28.6893 6.09052 28.9559 6.24151C29.216 6.38886 29.361 6.56694 29.4196 6.75567C29.4387 6.81702 29.4543 6.8975 29.4555 7.00005ZM27.7365 6.03935C27.7364 6.0393 27.7377 6.03866 27.7405 6.03753C27.738 6.03883 27.7366 6.03939 27.7365 6.03935Z" stroke="white" stroke-width="2"/>
</g>
<path d="M8 19.5C8 19.5 12.7663 24.9853 15.5 28.5L28.5 7" stroke="white" stroke-width="2"/>
<path d="M4 1H33V-1H4V1ZM36 4V33H38V4H36ZM33 36H4V38H33V36ZM1 33V4H-1V33H1ZM4 36C2.34315 36 1 34.6569 1 33H-1C-1 35.7614 1.23858 38 4 38V36ZM36 33C36 34.6569 34.6569 36 33 36V38C35.7614 38 38 35.7614 38 33H36ZM33 1C34.6569 1 36 2.34315 36 4H38C38 1.23858 35.7614 -1 33 -1V1ZM4 -1C1.23858 -1 -1 1.23858 -1 4H1C1 2.34315 2.34315 1 4 1V-1Z" fill="#2AAA8B"/>
<defs>
<filter id="filter0_d" x="4" y="4" width="28.4558" height="29.766" filterUnits="userSpaceOnUse" color-interpolation-filters="sRGB">
<feFlood flood-opacity="0" result="BackgroundImageFix"/>
<feColorMatrix in="SourceAlpha" type="matrix" values="0 0 0 0 0 0 0 0 0 0 0 0 0 0 0 0 0 0 127 0"/>
<feOffset dy="1"/>
<feGaussianBlur stdDeviation="1"/>
<feColorMatrix type="matrix" values="0 0 0 0 0 0 0 0 0 0 0 0 0 0 0 0 0 0 0.2 0"/>
<feBlend mode="normal" in2="BackgroundImageFix" result="effect1_dropShadow"/>
<feBlend mode="normal" in="SourceGraphic" in2="effect1_dropShadow" result="shape"/>
</filter>
</defs>
</svg>
