<svg width="20" height="24" viewBox="0 0 20 24" fill="none" xmlns="http://www.w3.org/2000/svg">
<path d="M7 13V19C7 19.552 6.552 20 6 20C5.448 20 5 19.552 5 19V13C5 12.448 5.448 12 6 12C6.552 12 7 12.448 7 13ZM14 12C13.448 12 13 12.448 13 13V19C13 19.552 13.448 20 14 20C14.552 20 15 19.552 15 19V13C15 12.448 14.552 12 14 12ZM10 12C9.448 12 9 12.448 9 13V19C9 19.552 9.448 20 10 20C10.552 20 11 19.552 11 19V13C11 12.448 10.552 12 10 12ZM14.333 3.377C13.451 3.193 12.96 1.968 13.144 1.086L7.941 0C7.757 0.883 6.818 1.81 5.937 1.625L0.409 0.526L0 2.484L19.591 6.583L20 4.625L14.333 3.377ZM19 8V24H1V8H19ZM17 22V10H3V22H17Z" fill="black"/>
</svg>
