<svg width="44" height="30" viewBox="0 0 44 30" fill="none" xmlns="http://www.w3.org/2000/svg">
<rect x="0.5" y="0.5" width="43" height="29" rx="5.5" fill="white" stroke="#D9D9D9"/>
<path fill-rule="evenodd" clip-rule="evenodd" d="M13.3566 20.3228H10.691L8.69219 12.7405C8.59732 12.3917 8.39588 12.0833 8.09956 11.938C7.36007 11.5728 6.5452 11.2821 5.65625 11.1355V10.8436H9.95024C10.5429 10.8436 10.9873 11.2821 11.0614 11.7914L12.0985 17.2608L14.7628 10.8436H17.3542L13.3566 20.3228ZM18.8357 20.3228H16.3183L18.3912 10.8436H20.9086L18.8357 20.3228ZM24.1655 13.4696C24.2396 12.9591 24.684 12.6672 25.2026 12.6672C26.0175 12.5939 26.9051 12.7405 27.6459 13.1044L28.0904 11.0635C27.3496 10.7716 26.5347 10.625 25.7952 10.625C23.3519 10.625 21.574 11.938 21.574 13.7603C21.574 15.1466 22.8334 15.8745 23.7223 16.313C24.684 16.7503 25.0544 17.0422 24.9803 17.4794C24.9803 18.1353 24.2396 18.4272 23.5001 18.4272C22.6111 18.4272 21.7222 18.2086 20.9086 17.8434L20.4641 19.8856C21.3531 20.2495 22.3148 20.3961 23.2037 20.3961C25.9434 20.4681 27.6459 19.1564 27.6459 17.1875C27.6459 14.7081 24.1655 14.5628 24.1655 13.4696ZM36.4565 20.3228L34.4577 10.8436H32.3107C31.8662 10.8436 31.4217 11.1355 31.2736 11.5728L27.5722 20.3228H30.1637L30.6809 18.9378H33.865L34.1613 20.3228H36.4565ZM32.6805 13.3964L33.42 16.9689H31.3471L32.6805 13.3964Z" fill="#172B85"/>
</svg>
