<svg width="32" height="32" viewBox="0 0 32 32" fill="none" xmlns="http://www.w3.org/2000/svg">
<g clip-path="url(#clip0)">
<path d="M4.93093 0H27.0691C29.7922 0 32 2.20767 32 4.93096V27.069C32 29.7922 29.7922 32 27.0691 32H4.93093C2.20767 32 0 29.7922 0 27.069V4.93096C0 2.20767 2.20767 0 4.93093 0Z" fill="black"/>
<path d="M15.7315 22.401H17.0405C17.0405 22.401 17.4358 22.3574 17.6379 22.14C17.8237 21.9401 17.8178 21.565 17.8178 21.565C17.8178 21.565 17.7922 19.8086 18.6072 19.5499C19.411 19.295 20.4429 21.2474 21.5366 21.9982C22.3636 22.5662 22.9921 22.4419 22.9921 22.4419L25.9168 22.401C25.9168 22.401 27.4466 22.3066 26.7212 21.1038C26.6618 21.0055 26.2985 20.214 24.5466 18.5878C22.7126 16.8857 22.9584 17.1611 25.1674 14.2168C26.5127 12.4238 27.0504 11.3292 26.8824 10.8604C26.7223 10.4138 25.7328 10.5318 25.7328 10.5318L22.4399 10.5521C22.4399 10.5521 22.1956 10.5189 22.0147 10.6271C21.8377 10.733 21.7241 10.9804 21.7241 10.9804C21.7241 10.9804 21.2027 12.3679 20.5079 13.5479C19.0417 16.0377 18.4553 16.1695 18.2156 16.0147C17.6579 15.6543 17.7973 14.5673 17.7973 13.7948C17.7973 11.3818 18.1633 10.3758 17.0846 10.1153C16.7267 10.0289 16.463 9.97181 15.5476 9.96248C14.3726 9.95054 13.3783 9.96608 12.8152 10.2419C12.4406 10.4254 12.1515 10.8341 12.3277 10.8577C12.5453 10.8866 13.0381 10.9907 13.2994 11.3462C13.6369 11.8054 13.6251 12.8363 13.6251 12.8363C13.6251 12.8363 13.8191 15.6767 13.1723 16.0295C12.7285 16.2715 12.1196 15.7774 10.8123 13.5186C10.1426 12.3615 9.6368 11.0824 9.6368 11.0824C9.6368 11.0824 9.5394 10.8434 9.36544 10.7154C9.15444 10.5604 8.8596 10.5113 8.8596 10.5113L5.7304 10.5317C5.7304 10.5317 5.26074 10.5449 5.08817 10.7491C4.93464 10.9309 5.0759 11.3066 5.0759 11.3066C5.0759 11.3066 7.52557 17.038 10.2996 19.9264C12.8434 22.5748 15.7315 22.401 15.7315 22.401Z" fill="white"/>
</g>
<defs>
<clipPath id="clip0">
<rect width="32" height="32" fill="white"/>
</clipPath>
</defs>
</svg>
