<svg width="51" height="35" viewBox="0 0 51 35" fill="none" xmlns="http://www.w3.org/2000/svg">
<rect x="0.5" y="0.5" width="50" height="34" rx="5.5" fill="white" stroke="#D9D9D9"/>
<path d="M35.6991 15.7195C35.5939 15.088 35.0155 14.667 34.2268 14.667C33.9639 14.667 33.7536 14.667 33.4907 14.667C33.0175 14.6144 32.9123 14.7722 32.9123 15.1406C32.9123 16.9824 32.9123 18.7716 32.9123 20.6134C32.9123 21.5607 31.9658 22.5605 30.8617 22.771C27.3913 23.5604 23.921 24.2971 20.4507 25.0865C20.0826 25.1917 19.662 25.1917 19.2413 25.1917C19.0836 25.1917 18.8207 25.0864 18.7681 24.9286C18.7155 24.8233 18.8733 24.6128 18.9784 24.5076C19.1362 24.4023 19.3465 24.2971 19.5568 24.1918C20.1878 23.9814 20.8713 23.7709 21.5023 23.5604C24.0787 22.7184 26.6552 21.8764 29.2317 20.9818C30.3884 20.6134 31.0194 19.8241 31.0194 18.8243C31.072 15.6668 31.0194 12.4568 31.0194 9.29939C31.0194 8.77315 30.7565 8.35216 30.1781 8.14167C29.4945 7.87855 28.8636 8.08904 28.2852 8.35216C24.6045 10.0887 20.9765 11.8253 17.2959 13.5619C16.2442 14.0881 15.6133 14.8249 15.6133 15.8773C15.6133 18.8769 15.6133 21.8764 15.6133 24.876C15.6133 25.0338 15.6133 25.1917 15.6658 25.2969C16.0339 26.2968 16.9804 26.9283 18.2423 26.9283C20.8188 26.9283 23.3952 26.9283 25.9716 26.9283C28.5481 26.9283 31.072 26.9283 33.6484 26.9283C34.2268 26.9283 34.7 26.823 35.1207 26.4547C35.6465 26.0337 35.6465 25.4548 35.6465 24.9286C35.6465 22.3396 35.6991 15.7195 35.6991 15.7195ZM24.9726 14.7722C25.2355 14.0881 25.8139 13.6671 26.6552 13.5619C27.2336 13.5093 27.7068 13.825 27.812 14.3512C27.9171 15.1406 26.9707 16.0878 25.9716 16.0878C25.1829 16.0878 24.7097 15.509 24.9726 14.7722Z" fill="#FD6727"/>
</svg>
