<svg width="24" height="24" viewBox="0 0 24 24" fill="none" xmlns="http://www.w3.org/2000/svg">
<path d="M9 13V19C9 19.552 8.552 20 8 20C7.448 20 7 19.552 7 19V13C7 12.448 7.448 12 8 12C8.552 12 9 12.448 9 13ZM16 12C15.448 12 15 12.448 15 13V19C15 19.552 15.448 20 16 20C16.552 20 17 19.552 17 19V13C17 12.448 16.552 12 16 12ZM12 12C11.448 12 11 12.448 11 13V19C11 19.552 11.448 20 12 20C12.552 20 13 19.552 13 19V13C13 12.448 12.552 12 12 12ZM16.333 3.377C15.451 3.193 14.96 1.968 15.144 1.086L9.941 0C9.757 0.883 8.818 1.81 7.937 1.625L2.409 0.526L2 2.484L21.591 6.583L22 4.625L16.333 3.377ZM21 8V24H3V8H21ZM19 22V10H5V22H19Z" fill="black"/>
</svg>
